<?xml version="1.0" standalone="no"?>
<!DOCTYPE svg PUBLIC "-//W3C//DTD SVG 20010904//EN"
 "http://www.w3.org/TR/2001/REC-SVG-20010904/DTD/svg10.dtd">
<svg version="1.0" xmlns="http://www.w3.org/2000/svg"
 width="1501.000000pt" height="1503.000000pt" viewBox="0 0 1501.000000 1503.000000"
 preserveAspectRatio="xMidYMid meet">

<g transform="translate(0.000000,1503.000000) scale(0.100000,-0.100000)"
fill="#000000" stroke="none">
<path d="M0 7520 l0 -7510 7500 0 7500 0 0 7510 0 7510 -7500 0 -7500 0 0
-7510z m8300 3400 c959 -73 1807 -542 2383 -1319 325 -438 539 -986 608 -1556
20 -161 17 -587 -4 -745 -99 -723 -396 -1346 -882 -1849 -276 -285 -531 -476
-866 -646 -467 -237 -926 -348 -1454 -349 -375 -1 -662 42 -999 151 -972 313
-1740 1066 -2074 2035 -120 347 -172 663 -172 1048 0 384 49 683 170 1042 256
759 796 1402 1510 1798 528 293 1178 435 1780 390z"/>
<path d="M7860 10589 c-1219 -86 -2263 -944 -2590 -2128 -76 -274 -105 -534
-97 -854 7 -290 39 -498 117 -756 186 -614 573 -1154 1100 -1531 686 -492
1559 -655 2398 -449 387 95 769 285 1102 549 128 101 350 322 452 450 574 720
774 1646 547 2543 -103 407 -285 770 -563 1117 -88 110 -315 334 -435 429
-586 464 -1289 682 -2031 630z m570 -234 c63 -9 132 -20 152 -26 39 -10 88
-59 88 -88 0 -13 20 -22 88 -40 48 -12 142 -43 210 -67 l124 -45 43 21 c56 27
81 21 227 -60 197 -109 434 -279 476 -341 19 -27 22 -42 18 -72 -6 -38 -4 -41
82 -131 48 -51 114 -124 146 -163 57 -70 60 -71 105 -71 40 0 50 -5 81 -39 72
-77 229 -361 305 -552 40 -102 41 -138 5 -184 l-20 -25 34 -134 c19 -73 40
-170 47 -214 11 -76 14 -83 42 -95 17 -8 40 -27 51 -42 19 -26 21 -45 25 -245
2 -159 -1 -254 -13 -352 -20 -160 -62 -373 -82 -412 -14 -28 -60 -58 -88 -58
-9 0 -23 -25 -37 -67 -25 -77 -95 -248 -126 -307 -20 -39 -20 -40 0 -73 13
-24 18 -44 14 -68 -12 -73 -233 -387 -383 -543 l-81 -85 -57 5 c-55 5 -57 4
-108 -41 -80 -70 -146 -122 -219 -174 -62 -44 -67 -50 -72 -93 -3 -27 -13 -54
-26 -68 -53 -57 -358 -202 -570 -271 -124 -41 -158 -41 -201 -1 -25 24 -26 24
-90 10 -77 -16 -303 -49 -372 -53 -5 -1 -8 -7 -8 -14 0 -7 -14 -26 -31 -43
l-30 -29 -162 1 c-89 0 -202 6 -252 13 -146 19 -318 53 -347 67 -27 14 -58 60
-58 86 0 8 -40 27 -102 47 -57 19 -150 54 -208 78 -100 43 -105 44 -131 29
-47 -28 -92 -20 -182 30 -146 83 -300 194 -439 317 -84 73 -108 119 -90 167 8
22 3 32 -43 81 -59 65 -157 184 -200 245 -26 37 -33 41 -72 40 -35 -1 -48 4
-72 29 -71 73 -244 425 -302 614 -23 77 -17 121 20 155 18 16 18 19 0 94 -11
42 -28 140 -40 217 -12 83 -25 142 -32 144 -7 2 -27 19 -44 37 -37 36 -36 33
-34 249 2 219 40 496 75 548 12 18 37 37 56 43 22 7 37 20 41 35 35 117 67
210 100 296 39 98 39 103 24 127 -28 42 -22 88 19 168 55 106 212 339 301 445
81 98 114 118 172 107 31 -6 39 -1 119 76 48 45 122 109 165 142 76 59 79 63
79 102 0 23 7 51 15 64 32 44 268 182 445 257 213 92 268 102 318 61 l29 -25
74 19 c62 17 201 44 335 65 23 4 34 12 38 30 8 31 52 62 96 68 76 9 430 -2
540 -18z"/>
<path d="M7660 10184 c-41 -7 -125 -25 -187 -40 -94 -22 -112 -30 -117 -48 -9
-38 -43 -64 -121 -93 l-75 -28 0 -100 0 -100 -160 -160 -160 -160 0 -333 0
-333 40 -38 c34 -33 40 -44 40 -80 0 -86 -76 -140 -152 -108 -47 20 -73 60
-72 111 1 32 8 46 38 73 l36 33 0 348 0 347 160 160 160 160 0 73 c0 71 -1 73
-22 67 -38 -11 -226 -113 -302 -163 -69 -45 -113 -56 -166 -41 -13 3 -15 -71
-18 -622 l-2 -627 25 -16 c96 -63 53 -206 -62 -206 -38 0 -50 5 -79 34 -28 28
-34 41 -34 77 0 36 6 47 40 80 l40 38 0 591 0 591 -22 -15 c-13 -9 -62 -51
-110 -93 l-87 -78 -1 -373 c0 -359 1 -375 20 -399 33 -42 25 -85 -21 -109 -75
-38 -141 43 -89 109 19 24 20 38 18 308 l-3 282 -59 -73 c-79 -98 -177 -245
-238 -358 -50 -92 -89 -132 -130 -132 -19 0 -100 -198 -138 -337 l-23 -81 22
-28 c25 -32 26 -54 6 -157 -25 -131 -36 -253 -40 -435 -3 -137 -7 -179 -20
-198 -8 -13 -20 -24 -25 -24 -14 0 -12 -60 5 -170 26 -161 55 -280 70 -280 7
0 27 -11 43 -25 23 -19 39 -52 68 -137 42 -122 136 -322 203 -433 48 -79 58
-112 43 -153 -9 -27 -5 -36 54 -113 36 -46 97 -121 137 -166 70 -80 73 -82
119 -82 44 -1 53 -6 160 -97 117 -99 261 -201 385 -272 77 -45 113 -82 113
-116 0 -18 18 -30 108 -68 59 -25 150 -60 203 -77 l96 -32 37 22 c40 24 27 24
251 -15 101 -18 204 -28 315 -32 198 -6 200 -7 233 -40 26 -26 29 -26 109 -20
143 13 342 53 353 72 28 47 60 75 98 85 23 6 79 24 124 41 l83 30 0 112 0 111
160 160 160 160 0 340 0 340 -35 28 c-43 34 -54 80 -31 129 53 111 216 74 216
-48 0 -36 -24 -77 -54 -94 l-26 -13 0 -356 0 -356 -160 -160 -160 -160 0 -82
0 -82 48 22 c26 12 96 48 156 80 109 58 140 67 184 53 18 -6 36 1 78 28 l54
36 0 638 0 639 -24 11 c-41 18 -59 56 -53 108 6 53 27 80 77 95 74 22 146 -35
144 -115 -1 -32 -8 -46 -38 -73 l-36 -33 2 -606 3 -606 79 68 c76 67 79 70 80
116 1 37 8 54 29 76 l27 28 0 335 c0 323 -1 337 -20 354 -30 27 -27 78 6 104
34 26 68 27 94 1 28 -28 30 -72 4 -101 -12 -13 -14 -67 -12 -314 l3 -297 66
83 c37 46 98 134 137 194 96 150 107 163 151 175 35 9 41 16 75 90 44 96 71
164 102 253 l23 68 -21 34 c-23 40 -23 43 15 225 37 179 49 310 46 515 -3 269
-4 253 26 285 l26 28 -19 109 c-11 61 -33 156 -48 213 -26 92 -32 103 -59 114
-44 19 -58 40 -100 146 -47 120 -137 294 -214 413 -66 102 -77 131 -62 169 9
23 4 33 -46 94 -31 38 -97 111 -147 162 -88 89 -92 92 -136 92 -49 0 -41 -5
-210 123 -99 75 -274 184 -355 221 -67 31 -94 55 -106 95 -11 37 -15 39 -110
74 -54 20 -145 51 -203 68 l-105 31 -32 -22 c-37 -27 -71 -28 -204 -5 -83 14
-356 27 -542 25 -19 0 -43 10 -61 25 -34 28 -52 29 -162 9z m254 -1325 l26
-20 0 -181 c0 -156 2 -179 15 -174 8 3 67 6 130 7 l115 1 0 173 0 174 26 20
c36 28 60 26 95 -8 l29 -29 0 -171 0 -171 28 0 c16 0 63 -9 104 -19 216 -56
317 -169 306 -345 -11 -171 -126 -296 -344 -375 l-76 -28 77 -6 c275 -24 394
-130 383 -342 -10 -200 -150 -336 -406 -396 l-92 -22 0 -168 0 -168 -26 -20
c-43 -34 -86 -24 -112 26 -8 14 -12 77 -12 171 l0 149 -117 10 c-65 5 -121 8
-125 6 -5 -2 -8 -80 -8 -173 l0 -169 -26 -20 c-35 -28 -69 -26 -99 4 -25 24
-25 27 -25 196 l0 171 -170 -7 c-148 -7 -170 -6 -170 7 0 9 6 20 13 26 14 12
124 32 178 32 l36 0 8 351 c4 193 4 505 0 694 l-7 343 -42 6 c-22 3 -67 8 -98
12 -66 7 -94 23 -85 48 6 15 17 17 80 12 39 -3 116 -8 170 -12 l97 -6 0 177 0
177 29 29 c35 34 59 36 95 8z"/>
<path d="M7973 8429 l-53 -11 0 -345 0 -346 168 6 c133 4 180 9 232 26 141 46
209 134 218 280 10 176 -75 308 -238 372 -64 25 -240 35 -327 18z"/>
<path d="M7920 7351 c0 -266 3 -330 13 -334 8 -3 57 -11 110 -18 217 -28 402
34 469 158 54 98 55 260 3 363 -59 117 -186 160 -472 160 l-123 0 0 -329z"/>
</g>
</svg>
