<?xml version="1.0" encoding="utf-8"?>
<!-- Generator: Adobe Illustrator 24.3.0, SVG Export Plug-In . SVG Version: 6.00 Build 0)  -->
<svg version="1.1" id="Layer_1" xmlns="http://www.w3.org/2000/svg" xmlns:xlink="http://www.w3.org/1999/xlink" x="0px" y="0px"
	 viewBox="0 0 1000 1000" style="enable-background:new 0 0 1000 1000;" xml:space="preserve">
<style type="text/css">
	.st0{fill:#00AEEF;}
</style>
<g>
	<g>
		<g>
			<g>
				<path class="st0" d="M91.65,630.66h12.82v33.94h31.32v-33.94h12.82v82.93h-12.82v-37.82h-31.32v37.82H91.65V630.66z"/>
				<path class="st0" d="M167.37,690.1v-38.38h12.61v36.73c0,10.7,3.58,15.79,12.88,15.79c6.45,0,11.15-2.87,17.32-10.21v-42.32
					h12.61v61.87h-10.42l-1-10.31h-0.51c-6.04,7-13.09,11.83-22.47,11.83C173.92,715.11,167.37,706.21,167.37,690.1z"/>
				<path class="st0" d="M242.49,705.48l5.62-8.17c7.26,5,15.69,8.12,26.36,8.12c9.49,0,14.03-3.79,14.03-8.43
					c0-4.38-2.57-7.15-18.15-10.36c-16.34-3.39-24.01-9.04-24.01-18.41c0-10.35,9.31-18.04,26.43-18.04
					c9.84,0,19.24,3.86,25.43,8.04l-5.92,7.87c-5.86-3.9-13-6.34-20.62-6.34c-9.2,0-12.76,3.64-12.76,7.87
					c0,4.85,4.94,6.75,17.08,9.33c20.13,4.41,25.18,9.59,25.18,19.28c0,10.36-10.03,18.86-28.3,18.86
					C261.06,715.11,250.08,710.7,242.49,705.48z"/>
				<path class="st0" d="M335.11,689.11v-27.33h-17.05v-9.41l17.55-0.66l1.65-19.61h10.46v19.61h29.19v10.07h-29.19v27.36
					c0,10.64,3.77,15.79,14.96,15.79c5.44,0,9.85-1.09,14.1-2.64l2.56,9.21c-5.57,1.93-11.69,3.6-19.58,3.6
					C341.27,715.11,335.11,704.64,335.11,689.11z"/>
				<path class="st0" d="M415.87,691.93v-58.06h-21.26V623.8h33.88v68.89c0,8.58,4.86,12.05,11.66,12.05c3.38,0,6.99-0.82,11.07-2.6
					l3.04,9.36c-5.91,2.33-10.06,3.6-17.05,3.6C423.34,715.11,415.87,706.85,415.87,691.93z"/>
				<path class="st0" d="M470.2,682.55c0-20.15,15.18-32.35,31.74-32.35c18.15,0,28.49,11.93,28.49,29.2c0,2.67-0.32,5.23-0.58,6.85
					h-50.91v-9.24h43.05l-2.73,3.08c0-13.4-6.49-20.13-16.98-20.13c-10.83,0-19.71,8-19.71,22.59c0,15.2,9.53,22.69,22.83,22.69
					c6.92,0,12.51-2.09,18.08-5.45l4.41,7.97c-6.36,4.19-14.59,7.34-24.09,7.34C485.03,715.11,470.2,703.16,470.2,682.55z"/>
				<path class="st0" d="M621.84,672.24c0-26.88,16.02-43.1,37.8-43.1c10.12,0,18.16,4.86,23.27,10.23l-7.17,7.96
					c-4.21-4.32-9.4-7.07-16.1-7.07c-14.77,0-24.68,12.06-24.68,31.63c0,19.88,9.91,32.09,24.87,32.09c7.17,0,12.76-3.2,17.65-8.64
					l7.17,7.71c-6.53,7.69-15.02,12.05-26.06,12.05C638.06,715.11,621.84,699.53,621.84,672.24z"/>
				<path class="st0" d="M697.11,682.75c0-20.71,14.51-32.56,30.82-32.56c16.3,0,30.82,11.85,30.82,32.56
					c0,20.51-14.51,32.35-30.82,32.35C711.62,715.11,697.11,703.26,697.11,682.75z M745.83,682.75c0-13.33-6.95-22.19-17.9-22.19
					c-10.95,0-17.9,8.86-17.9,22.19c0,13.23,6.95,21.98,17.9,21.98C738.88,704.74,745.83,695.98,745.83,682.75z"/>
				<path class="st0" d="M804.59,661.78h-27.67v-10.07h40.28v61.87h-12.61V661.78z M800.48,630.65c0-5.33,3.97-9,9.4-9
					s9.4,3.67,9.4,9c0,5.43-3.97,8.96-9.4,8.96S800.48,636.08,800.48,630.65z"/>
				<path class="st0" d="M852.97,651.71h10.31l1,9.86h0.51c6.2-6.36,13.24-11.38,22.79-11.38c14.47,0,21.06,8.9,21.06,25.01v38.38
					h-12.61v-36.73c0-10.8-3.63-15.8-12.8-15.8c-6.73,0-11.27,3.32-17.65,9.86v42.67h-12.62V651.71z"/>
			</g>
		</g>
	</g>
	<path class="st0" d="M649.58,327.63c-8.18-19.33-19.88-36.69-34.79-51.6c-13.79-13.8-29.69-24.85-47.31-32.9
		c-1.42-0.65-2.85-1.28-4.29-1.89c-9.27-3.92-18.8-6.95-28.55-9.06v142.23h-69.29v-56.08c0-5.06-4.1-9.17-9.17-9.17h-14.5
		c-5.06,0-9.17,4.1-9.17,9.17v199.7c-45.49-24.23-76.53-72.16-76.53-127.2c0-71.73,52.71-131.38,121.43-142.25
		c3.66-0.58,9.28-1.02,14-1.32c4.83-0.3,8.59-4.32,8.59-9.16c0-5.28-4.44-9.47-9.72-9.16c-4.45,0.26-9.47,0.62-12.87,1.09
		c-13.96,1.94-27.55,5.69-40.61,11.21c-19.33,8.18-36.69,19.88-51.6,34.79c-14.91,14.9-26.61,32.27-34.79,51.6
		c-8.47,20.02-12.76,41.28-12.76,63.2c0,21.91,4.29,43.17,12.76,63.19c8.18,19.33,19.88,36.69,34.79,51.6
		c13.8,13.8,29.69,24.85,47.31,32.9c1.42,0.65,2.85,1.28,4.29,1.89c9.27,3.92,18.81,6.95,28.55,9.07V407.25h69.29v56.07
		c0,5.06,4.1,9.17,9.17,9.17h14.5c5.06,0,9.17-4.1,9.17-9.17V263.63c45.49,24.23,76.53,72.16,76.53,127.2
		c0,71.72-52.71,131.37-121.43,142.24c-4.58,0.73-9.24,1.24-13.96,1.52c-4.84,0.29-8.63,4.3-8.63,9.15l0,0
		c0,5.29,4.46,9.46,9.74,9.15c4.31-0.25,8.59-0.68,12.84-1.26c13.96-1.94,27.55-5.69,40.61-11.21c19.33-8.18,36.7-19.88,51.6-34.79
		c14.91-14.91,26.61-32.27,34.79-51.6c8.47-20.02,12.76-41.28,12.76-63.19C662.35,368.92,658.05,347.65,649.58,327.63z"/>
</g>
</svg>
