<svg id="SvgjsSvg1021" width="288" height="288" xmlns="http://www.w3.org/2000/svg" version="1.1" xmlns:xlink="http://www.w3.org/1999/xlink" xmlns:svgjs="http://svgjs.com/svgjs"><defs id="SvgjsDefs1022"></defs><g id="SvgjsG1023" transform="matrix(1,0,0,1,0,0)"><svg xmlns="http://www.w3.org/2000/svg" viewBox="0 0 32 32" width="288" height="288"><path fill="#ffffff" d="M22.48,10.51v-1a6.56,6.56,0,0,0-13.12,0l0,.95H4.24V28.16H27.76V10.51ZM10.35,9.56a5.56,5.56,0,1,1,11.12,0v.95H20.21V9.59a4.22,4.22,0,0,0-8.43,0v.92H10.37Zm2.42,0a3.22,3.22,0,0,1,6.43,0v.92H12.78Zm14,17.57H5.24V11.51H26.76Z" class="color231f20 svgShape"></path><path fill="#ffffff" d="M16.64,18.83l-.14,0V16.67a1.71,1.71,0,0,1,.52.2,1.83,1.83,0,0,1,.68.82l.12.27.95-.4-.1-.27A2.36,2.36,0,0,0,17.62,16a3.2,3.2,0,0,0-1.12-.36v-.89h-1v.86a4.35,4.35,0,0,0-.52.1,3.32,3.32,0,0,0-.85.4,2.27,2.27,0,0,0-.65.66,1.74,1.74,0,0,0-.25.9,1.46,1.46,0,0,0,.22.79A2.09,2.09,0,0,0,14,19a2.41,2.41,0,0,0,.67.37,6.14,6.14,0,0,0,.73.22l.13,0V22a2.07,2.07,0,0,1-.65-.28,2,2,0,0,1-.75-1.06L14,20.33l-1,.43.09.26a3,3,0,0,0,1.05,1.48,3.32,3.32,0,0,0,.86.44,4.05,4.05,0,0,0,.5.12v.87h1v-.86a3.25,3.25,0,0,0,.65-.14,2.64,2.64,0,0,0,.88-.47,2.07,2.07,0,0,0,.58-.71,2.12,2.12,0,0,0,.2-.9,1.7,1.7,0,0,0-.57-1.26A3.32,3.32,0,0,0,16.64,18.83ZM17,20a1.37,1.37,0,0,1,.45.26.73.73,0,0,1,.2.26,1,1,0,0,1,.06.34,1,1,0,0,1-.42.82,1.81,1.81,0,0,1-.8.3V19.86C16.69,19.92,16.87,20,17,20Zm-1.9-1.59a3.14,3.14,0,0,1-.45-.23A1.07,1.07,0,0,1,14.4,18a.51.51,0,0,1-.08-.28.7.7,0,0,1,.12-.4,1.14,1.14,0,0,1,.35-.34,1.7,1.7,0,0,1,.53-.23,1.13,1.13,0,0,1,.18,0v1.88Z" class="color231f20 svgShape"></path><path fill="#ffffff" d="M16,12.85a6.49,6.49,0,1,0,6.49,6.49A6.5,6.5,0,0,0,16,12.85Zm0,12a5.49,5.49,0,1,1,5.49-5.49A5.49,5.49,0,0,1,16,24.83Z" class="color231f20 svgShape"></path></svg></g></svg>