<svg id="SvgjsSvg1011" width="288" height="288" xmlns="http://www.w3.org/2000/svg" version="1.1" xmlns:xlink="http://www.w3.org/1999/xlink" xmlns:svgjs="http://svgjs.com/svgjs"><defs id="SvgjsDefs1012"></defs><g id="SvgjsG1013" transform="matrix(1,0,0,1,0,0)"><svg xmlns="http://www.w3.org/2000/svg" width="288" height="288" viewBox="0 0 79 79.969"><path fill="#ffffff" fill-rule="evenodd" d="M288.667 439.868a9.4 9.4 0 0 1-3.159-1.82c0-.02 0-.02-.02-.02-.12-.1-.22-.22-.34-.32a.076.076 0 0 1-.04-.04 9.574 9.574 0 0 1-2.779-6.138 28.212 28.212 0 0 0 5.7-17.516 30.935 30.935 0 0 0-.939-7.6v-.014a8.4 8.4 0 0 0-1.5-10.5 22.791 22.791 0 0 0-14.175-5.858 14.384 14.384 0 0 0-1.86 0c-12.455.48-22.212 11.017-22.212 23.974a2.022 2.022 0 0 0 .7 1.52 6.951 6.951 0 0 0 4.058 1.619 26.64 26.64 0 0 0 6.078 15.036 2.066 2.066 0 0 0 1.52.68 1.93 1.93 0 0 0 1.3-.5 2 2 0 0 0 .2-2.819 22.882 22.882 0 0 1-5.1-12.877c4.558-1.259 10.536-5 18.694-11.657l6.318 5.819a2.089 2.089 0 0 0 1.559.52 1.906 1.906 0 0 0 1.16-.54 24.307 24.307 0 0 1 .2 3.2c0 6.058-1.92 11.7-5.239 15.516v.02l-.04.04a11.727 11.727 0 0 1-8.757 4.419 2 2 0 0 0 0 4 14.71 14.71 0 0 0 8.917-3.119 13.231 13.231 0 0 0 2.3 4.4l-10.637 10.637a2 2 0 0 0 2.819 2.84l10.737-10.738a13.582 13.582 0 0 0 3.279 1.64c15.874 5.3 17.594 8.678 17.594 9.877 0 4.1-11.456 9.438-25.032 11.657a62.924 62.924 0 0 1-13.256.72 2.034 2.034 0 0 0-2.1 1.9 2.008 2.008 0 0 0 1.9 2.1c1.14.06 2.32.08 3.5.08a64.7 64.7 0 0 0 10.617-.84c10.536-1.739 28.37-6.978 28.37-15.616-.002-4.764-6.279-8.984-20.335-13.682zm-5.2-35.272l-1.3 1.78-5.938-5.5a2.007 2.007 0 0 0-2.639-.06c-9.877 8.2-16.874 12.357-20.833 12.357a3.552 3.552 0 0 1-1.38-.24c.5-10.3 8.378-18.515 18.414-18.9.22-.02.42-.02.64-.02s.46 0 .76.02a18.4 18.4 0 0 1 11.716 4.839 4.342 4.342 0 0 1 .562 5.728zm2.019 33.432c-.12-.1-.22-.22-.34-.32a2.533 2.533 0 0 1 .26.22c.022.04.062.06.082.1zm-37.492 31.312a18 18 0 1 1 17.994-17.995 18.015 18.015 0 0 1-17.994 17.995zm0-31.992a14 14 0 1 0 13.995 14 14.013 14.013 0 0 0-13.995-14zm-2.26 21.792a2 2 0 0 1-1.414-.586l-5.737-5.737a2 2 0 0 1 2.827-2.827l4.324 4.323 8.844-8.845a2 2 0 0 1 2.822 2.832l-10.258 10.258a1.994 1.994 0 0 1-1.408.582z" data-name="Verified User" transform="translate(-230 -390.031)" class="color3f4662 svgShape"></path></svg></g></svg>