<?xml version="1.0" encoding="utf-8"?>
<!-- Generator: Adobe Illustrator 24.3.0, SVG Export Plug-In . SVG Version: 6.00 Build 0)  -->
<svg version="1.1" id="Layer_1" xmlns="http://www.w3.org/2000/svg" xmlns:xlink="http://www.w3.org/1999/xlink" x="0px" y="0px"
	 viewBox="0 0 1000 1000" style="enable-background:new 0 0 1000 1000;" xml:space="preserve">
<style type="text/css">
	.st0{fill:#F1F2F2;}
</style>
<g>
	<g>
		<path class="st0" d="M264.56,486.28h-11.01v-38.89c0-9.15-6.83-16.73-15.65-17.91l-14.1-22.54c-3.55-5.67-10.29-8.35-16.76-6.67
			l-112.2,29.06c-2.73,0.08-5.33,0.79-7.63,1.98c-2.87,1.46-5.29,3.67-7,6.36c-1.81,2.81-2.85,6.14-2.85,9.72v42.42
			c-10.01,11.7-16.06,26.89-16.06,43.46c0,16.69,6.15,31.99,16.29,43.73c5.31,6.15,11.73,11.32,18.94,15.21
			c9.44,5.11,20.26,8.01,31.73,8.01c11.47,0,22.28-2.9,31.74-8.01h75.5c9.97,0,18.08-8.12,18.08-18.09v-42.64h11.01
			c4.93,0,8.96-4.02,8.96-8.96v-27.3C273.51,490.31,269.49,486.28,264.56,486.28z M209.13,408.36c2.93-0.76,5.97,0.45,7.57,3.01
			l11.22,17.95h-99.69L209.13,408.36z M157.79,583.86c-8.68,5.1-18.78,8.01-29.55,8.01c-10.77,0-20.87-2.91-29.54-8.01
			c-4.81-2.82-9.18-6.3-12.99-10.33c-3.21-3.39-6.03-7.16-8.36-11.24c-4.91-8.56-7.7-18.47-7.7-29.02s2.79-20.45,7.7-29.02
			c2.33-4.07,5.15-7.84,8.36-11.24c10.69-11.28,25.8-18.34,42.53-18.34c32.31,0,58.6,26.28,58.6,58.59
			C186.84,554.82,175.15,573.69,157.79,583.86z M245.19,574.13c0,5.36-4.36,9.73-9.72,9.73h-63.42
			c14.16-12.27,23.14-30.4,23.14-50.58c0-36.92-30.04-66.95-66.96-66.95c-16.13,0-30.96,5.74-42.53,15.28v-34.22
			c0-5.36,4.36-9.72,9.72-9.72h140.05c5.36,0,9.72,4.36,9.72,9.72v38.89h-23.28c-4.93,0-8.96,4.02-8.96,8.96v27.3
			c0,4.93,4.02,8.96,8.96,8.96h23.28V574.13z M265.16,522.53c0,0.32-0.27,0.6-0.6,0.6h-42.65c-0.32,0-0.6-0.27-0.6-0.6v-27.3
			c0-0.32,0.27-0.6,0.6-0.6h42.65c0.32,0,0.6,0.27,0.6,0.6V522.53z"/>
		<path class="st0" d="M254.54,504.71h-22.6c-0.92,0-1.66,0.74-1.66,1.66v5.03c0,0.92,0.74,1.66,1.66,1.66h22.6
			c0.92,0,1.66-0.74,1.66-1.66v-5.03C256.2,505.45,255.46,504.71,254.54,504.71z"/>
		<path class="st0" d="M128.24,482.45c-28.03,0-50.83,22.8-50.83,50.83c0,28.03,22.8,50.83,50.83,50.83s50.83-22.8,50.83-50.83
			C179.07,505.25,156.27,482.45,128.24,482.45z M128.24,579.33c-25.39,0-46.06-20.66-46.06-46.06s20.66-46.06,46.06-46.06
			s46.06,20.66,46.06,46.06S153.64,579.33,128.24,579.33z"/>
		<polygon class="st0" points="106.12,531.53 99.04,531.53 99.04,524.08 95.18,524.08 95.18,542.47 99.04,542.47 99.04,534.77 
			106.12,534.77 106.12,542.47 109.97,542.47 109.97,524.08 106.12,524.08 		"/>
		<path class="st0" d="M124.3,531.78h-5.09c-0.87,0-1.52-0.21-1.93-0.62c-0.34-0.34-0.51-0.8-0.51-1.37c0-1.6,1-2.41,3.01-2.41h9.55
			v-3.29h-10.16c-2.32,0-4,0.49-5.04,1.48c-0.93,0.89-1.4,2.25-1.4,4.07c0,1.81,0.49,3.16,1.48,4.03c0.99,0.87,2.54,1.31,4.65,1.31
			h4.55c1.11,0,1.88,0.19,2.3,0.59c0.27,0.26,0.41,0.66,0.41,1.21c0,0.82-0.18,1.41-0.55,1.77c-0.44,0.42-1.25,0.64-2.42,0.64h-9.67
			v3.29h10.28c2.35,0,4.03-0.49,5.07-1.46c0.92-0.87,1.39-2.22,1.39-4.04c0-1.78-0.42-3.07-1.25-3.87
			C128.06,532.22,126.5,531.78,124.3,531.78z"/>
		<path class="st0" d="M137.8,538.9c-0.59-0.35-0.96-0.93-1.13-1.74c-0.11-0.52-0.16-1.51-0.16-2.97v-10.11h-3.83v10.94
			c0,2.1,0.33,3.72,0.99,4.85c0.6,1.03,1.5,1.74,2.71,2.13c0.95,0.31,2.29,0.46,4.03,0.46h4.92v-3.04h-4.6
			C139.36,539.43,138.38,539.25,137.8,538.9z"/>
		<polygon class="st0" points="145.47,524.13 145.47,527.33 151.35,527.33 151.35,542.47 155.36,542.47 155.36,527.33 161.3,527.33 
			161.3,524.13 		"/>
	</g>
	<g>
		<path class="st0" d="M432.17,503.95v36.37h-14.29v-77.06h14.29v35.04h32.22v-35.04h14.18v77.06h-14.18v-36.37H432.17z"/>
		<path class="st0" d="M507.49,489.77v32.74c0,4.07,0.95,7.21,2.85,9.42c1.9,2.21,4.64,3.31,8.21,3.31c3.73,0,6.39-1.15,7.98-3.46
			c1.6-2.31,2.39-6.15,2.39-11.53v-30.49h4.96v34c0,5.65-1.58,10.1-4.73,13.34c-3.15,3.25-7.47,4.87-12.97,4.87
			c-6.53,0-11.49-1.66-14.87-4.99c-3.38-3.32-5.07-8.19-5.07-14.61v-32.62H507.49z"/>
		<path class="st0" d="M547.49,539.39v-4.15c1.81,0.46,3.57,0.82,5.3,1.07c1.73,0.25,3.46,0.37,5.19,0.37c3.84,0,6.71-0.63,8.62-1.9
			c1.9-1.27,2.85-3.21,2.85-5.82c0-3.38-2.69-6.51-8.07-9.39l-0.63-0.35l-3.23-1.79c-4.19-2.27-7.11-4.43-8.76-6.48
			c-1.65-2.05-2.48-4.47-2.48-7.23c0-4.76,1.71-8.47,5.13-11.12c3.42-2.65,8.24-3.98,14.47-3.98c1.34,0,2.83,0.08,4.47,0.23
			c1.63,0.15,3.52,0.38,5.68,0.69v4.26c-3.3-0.38-5.56-0.63-6.77-0.75c-1.21-0.11-2.08-0.17-2.62-0.17c-3.31,0-5.83,0.58-7.58,1.73
			c-1.75,1.15-2.62,2.8-2.62,4.96c0,2.69,2.38,5.4,7.15,8.13l0.69,0.4l5.07,3.05c4.53,2.65,7.51,4.97,8.93,6.95
			c1.42,1.98,2.13,4.43,2.13,7.35c0,4.84-1.79,8.61-5.36,11.3c-3.57,2.69-8.63,4.03-15.16,4.03c-1.81,0-3.73-0.12-5.76-0.35
			C552.08,540.2,549.87,539.85,547.49,539.39z"/>
		<path class="st0" d="M598.96,540.31v-46.17h-10.78v-4.38h32.74v4.38h-10.78v46.17H598.96z"/>
		<path class="st0" d="M632.33,457.78h11.24v74.17c0,1.54,0.35,2.59,1.04,3.14c0.69,0.56,2.31,0.84,4.84,0.84h2.82v4.38H640
			c-2.84,0-4.83-0.59-5.96-1.79c-1.13-1.19-1.7-3.63-1.7-7.32V457.78z"/>
		<path class="st0" d="M660.8,498.88c0-3.77,0.61-6.22,1.82-7.38s3.76-1.73,7.64-1.73h24.09v4.38h-17.23
			c-2.04,0-3.39,0.29-4.06,0.87c-0.67,0.58-1.01,1.63-1.01,3.17v12.74h18.27v4.96h-18.27v16.08c0,1.54,0.35,2.59,1.04,3.14
			c0.69,0.56,2.31,0.84,4.84,0.84h17v4.38h-26.45c-2.84,0-4.83-0.59-5.96-1.79c-1.13-1.19-1.7-3.63-1.7-7.32V498.88z"/>
		<path class="st0" d="M806.1,522.05c-3,6.49-7.18,11.48-12.54,14.96c-5.36,3.48-11.59,5.22-18.7,5.22
			c-10.57,0-19.35-3.78-26.34-11.35c-6.99-7.57-10.49-17.25-10.49-29.05c0-11.49,3.58-21.06,10.75-28.73
			c7.17-7.67,16.05-11.5,26.65-11.5c6.46,0,12.05,1.33,16.8,3.98c4.75,2.65,8.67,6.63,11.79,11.93l-4.61,3.23
			c-2.38-4.69-5.33-8.2-8.85-10.55c-3.52-2.34-7.58-3.52-12.19-3.52c-7.72,0-13.84,3.19-18.36,9.57
			c-4.52,6.38-6.77,15.08-6.77,26.11c0,10.64,2.15,18.9,6.46,24.78c4.3,5.88,10.34,8.82,18.1,8.82c5.19,0,9.79-1.43,13.8-4.29
			c4.01-2.86,7.29-7.06,9.83-12.59L806.1,522.05z"/>
		<path class="st0" d="M838.43,541.99c-7.61,0-13.98-2.61-19.11-7.84c-5.13-5.23-7.69-11.8-7.69-19.71c0-7.72,2.19-14.01,6.57-18.88
			c4.38-4.86,10.1-7.29,17.17-7.29c7.68,0,14.09,2.61,19.22,7.84c5.13,5.23,7.69,11.78,7.69,19.65c0,7.76-2.2,14.07-6.6,18.93
			C851.29,539.56,845.54,541.99,838.43,541.99z M836.93,538.18c4.03,0,7.3-2.1,9.8-6.31c2.5-4.21,3.75-9.77,3.75-16.69
			c0-6.95-1.25-12.55-3.75-16.8c-2.5-4.24-5.76-6.37-9.8-6.37s-7.31,2.13-9.83,6.4c-2.52,4.27-3.77,9.86-3.77,16.77
			c0,6.88,1.26,12.43,3.77,16.66C829.62,536.07,832.9,538.18,836.93,538.18z"/>
		<path class="st0" d="M872.95,475.36c0-1.82,0.64-3.37,1.93-4.65c1.29-1.28,2.85-1.92,4.7-1.92c1.77,0,3.28,0.63,4.55,1.89
			c1.27,1.26,1.9,2.82,1.9,4.68c0,1.78-0.62,3.32-1.87,4.59c-1.25,1.28-2.78,1.92-4.58,1.92c-1.84,0-3.41-0.64-4.7-1.92
			C873.6,478.68,872.95,477.14,872.95,475.36z M873.88,489.77h11.24v50.54h-11.24V489.77z"/>
		<path class="st0" d="M905.75,540.31h-4.84v-41.9c0-3.57,0.59-6.16,1.76-7.75c1.17-1.59,3.03-2.39,5.56-2.39
			c2.04,0,3.96,0.7,5.76,2.1c1.81,1.4,3.52,3.52,5.13,6.37l13.2,23.51c0.04,0.08,0.12,0.15,0.26,0.23c0.13,0.08,0.28,0.12,0.43,0.12
			c0.31,0,0.53-0.1,0.66-0.29c0.13-0.19,0.2-0.58,0.2-1.15v-29.39h4.84v46.28c0,2.34-0.28,3.92-0.83,4.73
			c-0.56,0.81-1.51,1.21-2.85,1.21c-0.96,0-1.78-0.24-2.45-0.72c-0.67-0.48-1.32-1.28-1.93-2.39l-23.23-39.88
			c-0.15-0.27-0.29-0.45-0.4-0.55c-0.12-0.1-0.25-0.14-0.4-0.14c-0.35,0-0.58,0.08-0.69,0.23c-0.12,0.15-0.17,0.54-0.17,1.15V540.31
			z"/>
	</g>
</g>
</svg>
