<?xml version="1.0" standalone="no"?>
<!DOCTYPE svg PUBLIC "-//W3C//DTD SVG 20010904//EN"
 "http://www.w3.org/TR/2001/REC-SVG-20010904/DTD/svg10.dtd">
<svg version="1.0" xmlns="http://www.w3.org/2000/svg"
 width="1501.000000pt" height="1501.000000pt" viewBox="0 0 1501.000000 1501.000000"
 preserveAspectRatio="xMidYMid meet">

<g transform="translate(0.000000,1501.000000) scale(0.100000,-0.100000)"
fill="#000000" stroke="none">
<path d="M0 7510 l0 -7500 7500 0 7500 0 0 7500 0 7500 -7500 0 -7500 0 0
-7500z m9628 5554 c44 -8 118 -35 172 -61 82 -39 107 -58 185 -137 103 -104
152 -189 185 -320 20 -79 20 -115 20 -5041 0 -4903 0 -4963 -20 -5039 -53
-207 -213 -396 -400 -472 -144 -58 28 -54 -2474 -54 -2565 0 -2357 -6 -2516
72 -69 34 -102 59 -175 133 -102 101 -149 180 -187 310 l-23 80 0 4975 0 4975
23 75 c83 266 277 448 537 505 49 11 487 13 2328 14 2018 1 2276 -1 2345 -15z"/>
<path d="M5055 13015 c-289 -54 -510 -269 -571 -554 -21 -102 -21 -9792 1
-9908 44 -233 235 -450 468 -530 l82 -28 2260 0 2260 0 76 27 c113 40 195 92
279 178 114 115 177 240 199 392 6 38 9 1966 8 4953 l-2 4890 -23 75 c-40 129
-87 206 -187 305 -99 100 -176 147 -305 187 l-75 23 -2200 1 c-1769 2 -2214
-1 -2270 -11z m2568 -1244 c55 -11 108 -23 119 -27 14 -4 18 -2 14 5 -11 17 3
13 31 -9 14 -11 31 -20 38 -20 7 0 55 -16 106 -36 510 -197 894 -594 1072
-1110 182 -524 108 -1116 -197 -1577 -100 -151 -170 -233 -311 -359 -122 -110
-255 -200 -404 -274 -109 -53 -326 -134 -364 -134 -10 0 -16 -4 -13 -9 9 -14
-40 -23 -139 -27 -52 -2 -106 -10 -127 -18 -42 -18 -128 -22 -128 -6 0 6 -29
10 -66 10 -40 0 -63 -4 -59 -10 9 -15 -116 0 -140 16 -11 8 -29 14 -40 14 -17
0 -18 -2 -5 -11 12 -8 10 -10 -10 -5 -14 2 -42 8 -62 11 -21 4 -36 11 -33 15
6 10 -130 44 -144 36 -15 -9 -118 33 -125 51 -4 10 -14 13 -27 10 -28 -7 -97
20 -109 43 -6 10 -24 26 -41 34 -37 19 -42 20 -34 6 11 -17 -2 -12 -81 36 -54
34 -72 49 -62 55 8 5 9 9 2 9 -7 0 -44 25 -83 56 -39 30 -71 50 -71 44 0 -6
-18 3 -40 21 -22 18 -37 36 -34 41 3 4 -38 54 -91 110 -154 164 -283 372 -370
597 -20 52 -44 105 -53 120 -12 17 -13 23 -3 17 10 -6 12 -4 7 10 -16 52 -46
210 -55 296 -52 475 98 967 412 1346 76 92 222 229 326 305 172 127 414 240
616 291 87 21 139 31 280 50 79 11 404 -4 498 -23z m822 -4155 c76 -41 115
-133 97 -225 -21 -100 -97 -161 -200 -161 -126 0 -212 83 -212 205 0 163 169
261 315 181z m-2903 -53 c-3 -69 -2 -73 21 -78 13 -4 46 -5 73 -3 l49 3 0 75
1 75 54 0 55 0 3 -202 2 -203 -57 0 -58 0 3 61 c2 33 1 71 -2 85 -6 24 -10 25
-74 22 l-67 -3 -3 -82 -3 -83 -54 0 -55 0 0 198 c0 109 3 202 7 206 4 4 30 6
58 4 l50 -3 -3 -72z m428 -48 c0 -132 9 -170 44 -179 34 -9 45 -7 66 14 18 18
20 33 20 155 l0 135 56 0 55 0 -3 -153 c-3 -144 -5 -156 -28 -189 -32 -47 -77
-68 -149 -68 -64 0 -107 22 -145 73 -19 25 -21 45 -24 183 l-4 154 56 0 56 0
0 -125z m546 109 c34 -16 64 -58 64 -89 0 -12 -12 -15 -60 -15 -33 0 -60 4
-60 10 0 18 -36 30 -54 17 -29 -21 -8 -44 63 -72 79 -30 109 -58 117 -107 13
-78 -51 -138 -149 -138 -95 0 -145 31 -162 103 l-7 27 55 0 c47 0 60 -4 81
-25 21 -21 29 -24 46 -15 23 12 26 35 8 47 -7 4 -42 20 -78 34 -124 50 -148
151 -51 216 42 28 135 32 187 7z m424 -29 l0 -45 -55 0 -55 0 0 -160 0 -160
-55 0 -55 0 0 160 0 160 -55 0 -55 0 0 45 0 45 165 0 165 0 0 -45z m157 15 c0
-14 1 -85 2 -157 l1 -133 60 0 60 0 0 -45 0 -45 -120 0 -120 0 0 205 0 206 58
-3 c53 -3 57 -5 59 -28z m441 -17 l3 -43 -75 0 -76 0 0 -35 0 -35 66 0 65 0
-3 -42 -3 -43 -59 -1 c-49 -1 -61 -5 -66 -20 -16 -44 -2 -54 75 -54 l72 0 -1
-45 0 -45 -133 0 -133 0 0 198 c0 109 3 202 7 206 4 3 63 5 132 4 l126 -3 3
-42z m447 28 c48 -22 69 -44 90 -94 l15 -37 -65 0 c-36 0 -65 4 -65 10 0 18
-60 42 -91 35 -41 -9 -59 -40 -59 -101 0 -63 21 -92 72 -100 31 -5 41 -2 63
20 22 22 34 26 86 26 58 0 60 -1 54 -22 -23 -75 -103 -128 -195 -128 -134 0
-207 83 -198 225 5 77 40 134 101 164 53 27 137 27 192 2z m723 -188 l2 -203
-60 0 -60 0 0 205 0 206 58 -3 57 -3 3 -202z m256 90 l76 -118 0 118 0 117 55
0 55 0 0 -205 0 -205 -57 0 -58 0 -69 105 c-38 58 -71 105 -75 105 -3 0 -6
-46 -6 -102 l0 -103 -57 -3 -58 -3 0 206 0 205 59 0 59 0 76 -117z m-2533
-587 c19 -8 39 -48 39 -77 0 -11 -11 -31 -24 -44 -24 -23 -24 -25 -7 -35 26
-14 39 -58 29 -97 -13 -49 -49 -63 -163 -63 l-95 0 0 168 0 167 102 -6 c57 -3
110 -8 119 -13z m349 -139 c29 -84 55 -158 58 -164 3 -9 -9 -13 -41 -13 -41 0
-45 2 -50 30 -6 30 -7 30 -70 30 -60 0 -63 -1 -74 -30 -10 -27 -16 -30 -52
-30 -23 0 -41 2 -41 4 0 2 25 73 55 157 31 85 57 159 59 164 2 6 26 9 53 7
l49 -4 54 -151z m574 -10 c31 -87 56 -160 56 -163 0 -2 -20 -4 -44 -4 -41 0
-45 2 -51 30 -6 30 -8 30 -71 30 -64 0 -65 0 -70 -30 -6 -28 -10 -30 -51 -30
-32 0 -44 4 -41 13 3 6 29 80 59 164 l54 152 45 3 c25 2 48 1 51 -2 4 -3 32
-76 63 -163z m188 160 c7 -8 38 -52 68 -100 30 -47 58 -86 63 -87 4 0 7 44 7
98 l0 97 38 0 37 0 3 -167 2 -168 -42 0 -43 0 -67 103 -68 102 0 -102 0 -103
-40 0 -40 0 0 170 0 170 34 0 c19 0 41 -6 48 -13z m495 -7 c37 -16 83 -68 83
-92 0 -5 -20 -8 -43 -8 -31 0 -49 6 -62 20 -28 31 -88 27 -114 -6 -38 -49 -22
-133 30 -154 31 -13 64 -6 93 19 23 20 96 25 96 6 0 -20 -48 -74 -81 -90 -15
-8 -50 -15 -76 -15 -97 0 -165 70 -165 169 0 129 121 205 239 151z m349 -17
l0 -33 -63 0 -63 0 0 -35 0 -35 55 0 c54 0 55 0 55 -30 0 -28 -2 -30 -42 -32
-24 0 -49 -1 -55 -1 -18 1 -17 -63 1 -70 8 -3 33 -3 56 -1 46 6 60 -4 60 -43
0 -22 -3 -23 -105 -23 l-105 0 0 171 0 170 103 -3 102 -3 1 -32z m-1426 -108
l0 -135 55 0 c54 0 55 0 55 -30 l0 -30 -95 0 -95 0 0 165 0 165 40 0 40 0 0
-135z m-459 -935 c35 -19 52 -69 51 -152 -2 -119 -29 -158 -112 -158 -69 0
-134 81 -75 93 16 3 35 -3 49 -14 25 -20 51 -25 59 -11 3 4 8 22 12 39 l6 33
-28 -15 c-34 -18 -45 -18 -78 -3 -70 32 -72 146 -4 184 29 16 93 18 120 4z
m291 -20 c16 -16 28 -38 26 -47 -4 -23 -51 -22 -78 2 -26 23 -50 12 -61 -28
-7 -25 -6 -27 19 -20 80 21 132 -16 132 -93 0 -37 -6 -51 -29 -75 -24 -24 -38
-29 -76 -29 -88 0 -117 39 -116 157 1 119 31 161 114 162 30 1 45 -6 69 -29z
m276 -4 c2 -15 -19 -80 -50 -156 l-53 -130 -38 0 c-45 0 -46 -7 19 142 24 55
44 102 44 104 0 2 -29 4 -65 4 l-65 0 0 30 c0 28 1 29 58 32 31 2 77 3 102 2
41 -1 45 -4 48 -28z m321 19 c46 -24 57 -89 20 -124 -17 -16 -18 -20 -6 -28
19 -11 37 -47 37 -73 0 -12 -13 -35 -29 -51 -60 -60 -190 -27 -191 49 0 18 5
22 33 22 22 0 36 -7 45 -21 19 -30 56 -22 60 13 3 23 -1 28 -28 35 -17 5 -31
12 -31 16 1 4 1 18 1 32 0 16 5 23 13 19 7 -2 21 2 32 10 16 12 18 18 9 33
-13 20 -45 19 -57 -3 -4 -8 -23 -14 -42 -14 -29 0 -35 4 -35 21 0 11 13 34 29
50 34 33 92 39 140 14z m311 -26 l0 -29 -65 0 c-61 0 -65 -1 -65 -22 0 -21 4
-23 48 -20 40 3 51 0 70 -21 48 -51 34 -155 -24 -177 -47 -18 -100 -12 -133
16 -40 34 -42 70 -3 69 15 0 40 -9 56 -20 28 -19 29 -19 47 3 13 16 16 29 10
45 -9 25 -50 35 -61 16 -5 -6 -24 -13 -44 -14 l-36 -1 0 92 0 93 93 3 c50 2
95 2 100 0 4 -2 7 -16 7 -33z m120 11 c0 -25 4 -30 25 -30 21 0 25 5 25 30 0
23 4 30 20 30 18 0 20 -7 20 -75 0 -68 -2 -75 -20 -75 -16 0 -20 7 -20 30 0
25 -4 30 -25 30 -21 0 -25 -5 -25 -30 0 -23 -4 -30 -20 -30 -18 0 -20 7 -20
75 0 68 2 75 20 75 16 0 20 -7 20 -30z m204 14 c9 -8 16 -20 16 -25 0 -12 -37
-12 -45 1 -8 13 -25 13 -25 0 0 -5 16 -16 35 -24 58 -25 44 -86 -20 -86 -33 0
-55 15 -55 37 0 7 9 13 20 13 11 0 20 -4 20 -10 0 -5 7 -10 15 -10 26 0 16 16
-20 33 -37 18 -47 51 -23 75 17 17 64 15 82 -4z m146 2 c0 -8 -9 -18 -20 -21
-17 -5 -20 -15 -20 -61 0 -47 -2 -54 -20 -54 -18 0 -20 7 -20 54 0 46 -3 56
-20 61 -11 3 -20 13 -20 21 0 11 15 14 60 14 45 0 60 -3 60 -14z m50 -46 c0
-57 1 -60 25 -60 16 0 25 -6 25 -15 0 -11 -12 -15 -45 -15 l-45 0 0 75 c0 68
2 75 20 75 18 0 20 -7 20 -60z m-1046 -199 c14 -16 15 -23 6 -41 -16 -31 -74
-25 -78 8 -7 48 40 69 72 33z m738 -898 c40 -36 30 -104 -25 -160 l-31 -33 42
0 c41 0 42 -1 42 -35 l0 -35 -100 0 -100 0 0 30 c0 22 10 37 40 62 48 38 84
92 76 113 -8 22 -33 18 -39 -5 -4 -15 -14 -20 -41 -20 -40 0 -44 11 -24 56 24
51 116 67 160 27z m462 13 c87 -36 86 -233 -2 -267 -39 -15 -104 -4 -124 21
-62 76 -33 238 45 253 40 8 47 7 81 -7z m382 -17 c29 -28 31 -73 4 -96 -19
-17 -19 -17 0 -30 28 -20 27 -80 -2 -110 -45 -48 -158 -21 -170 42 -5 23 -2
25 30 25 21 0 40 -7 47 -17 15 -21 48 -10 43 14 -2 10 -13 19 -26 21 -18 3
-22 10 -22 38 0 27 4 34 20 34 13 0 20 7 20 20 0 23 -28 27 -36 5 -4 -9 -19
-15 -40 -15 -29 0 -34 3 -34 23 0 23 30 59 60 70 27 11 82 -2 106 -24z m-586
-14 l0 -35 -60 0 c-45 0 -60 -4 -60 -14 0 -11 10 -13 39 -9 33 5 44 1 65 -20
36 -36 37 -107 1 -142 -48 -49 -158 -22 -167 40 -2 17 3 21 35 23 23 2 37 -1
37 -8 0 -21 45 -6 48 16 3 24 -25 41 -42 24 -5 -5 -27 -10 -48 -10 l-38 0 0
85 0 85 95 0 95 0 0 -35z m850 0 l0 -35 -60 0 c-45 0 -60 -4 -60 -14 0 -11 10
-13 39 -9 56 8 91 -28 91 -92 0 -64 -31 -95 -95 -95 -38 0 -52 5 -77 30 -16
17 -28 36 -26 43 6 16 78 22 78 7 0 -21 45 -6 48 16 3 24 -25 41 -42 24 -5 -5
-27 -10 -48 -10 l-38 0 0 85 0 85 95 0 95 0 0 -35z m120 5 c0 -23 4 -30 20
-30 16 0 20 7 20 30 0 25 4 30 25 30 24 0 25 -2 25 -75 0 -73 -1 -75 -25 -75
-21 0 -25 5 -25 30 0 23 -4 30 -20 30 -16 0 -20 -7 -20 -30 0 -25 -4 -30 -25
-30 -24 0 -25 2 -25 75 0 73 1 75 25 75 21 0 25 -5 25 -30z m204 14 c26 -26
19 -37 -19 -31 -19 3 -35 4 -35 2 0 -3 16 -11 35 -19 37 -16 48 -49 23 -74
-19 -19 -73 -14 -93 8 -17 19 -17 20 0 26 10 4 26 2 36 -5 11 -6 19 -7 19 -2
0 6 -12 16 -27 23 -41 20 -51 43 -29 67 23 25 68 27 90 5z m146 -4 c0 -13 -7
-20 -20 -20 -18 0 -20 -7 -20 -55 0 -48 -2 -55 -20 -55 -18 0 -20 7 -20 55 0
48 -2 55 -20 55 -13 0 -20 7 -20 20 0 18 7 20 60 20 53 0 60 -2 60 -20z m60
-40 c0 -53 2 -60 20 -60 11 0 20 -7 20 -15 0 -11 -12 -15 -45 -15 l-45 0 0 75
c0 73 1 75 25 75 24 0 25 -3 25 -60z m-4344 17 c32 -37 31 -72 -5 -107 l-28
-29 29 -50 28 -51 -40 0 c-37 0 -41 3 -70 53 l-30 52 0 -52 0 -53 -40 0 -40 0
0 136 0 136 86 -3 c79 -4 87 -6 110 -32z m224 3 c0 -29 -2 -30 -45 -30 -42 0
-45 -2 -45 -26 0 -22 4 -25 28 -24 46 3 52 1 52 -25 0 -22 -4 -25 -40 -25 -36
0 -40 -2 -40 -25 0 -23 4 -25 45 -25 43 0 45 -1 45 -30 l0 -30 -85 0 -85 0 0
135 0 135 85 0 85 0 0 -30z m262 -9 c40 -44 37 -61 -11 -61 -25 0 -41 5 -45
15 -8 23 -73 20 -86 -4 -26 -49 -4 -111 38 -111 16 0 37 7 48 15 26 19 84 20
84 0 0 -8 -13 -29 -28 -46 -23 -25 -38 -33 -78 -36 -85 -9 -137 31 -148 112
-8 55 12 105 54 133 29 20 44 23 89 19 46 -3 59 -9 83 -36z m238 9 c0 -29 -2
-30 -45 -30 -41 0 -45 -2 -45 -25 0 -22 4 -25 40 -25 36 0 40 -2 40 -25 0 -22
-4 -25 -40 -25 -36 0 -40 -2 -40 -25 0 -23 4 -25 45 -25 43 0 45 -1 45 -30 l0
-30 -85 0 -85 0 0 135 0 135 85 0 85 0 0 -30z m120 -105 l0 -135 -40 0 -40 0
0 135 0 135 40 0 40 0 0 -135z m133 35 l30 -95 30 98 30 97 39 0 c33 0 38 -3
34 -17 -3 -10 -23 -70 -44 -133 l-39 -115 -49 -3 -49 -3 -47 136 -47 136 41
-3 41 -3 30 -95z m357 70 c0 -29 -2 -30 -45 -30 -42 0 -45 -2 -45 -26 0 -22 4
-25 28 -24 46 3 52 1 52 -25 0 -22 -4 -25 -40 -25 -36 0 -40 -2 -40 -25 0 -23
4 -25 45 -25 43 0 45 -1 45 -30 l0 -30 -85 0 -85 0 0 135 0 135 85 0 85 0 0
-30z m220 12 c64 -34 87 -115 52 -181 -27 -51 -73 -71 -159 -71 l-73 0 0 135
0 135 73 0 c51 0 83 -5 107 -18z m1774 -185 c11 -8 17 -23 14 -38 -2 -20 -9
-24 -37 -24 -48 0 -65 29 -32 56 28 23 32 23 55 6z m1066 -332 l0 -65 -2300 0
-2300 0 0 65 0 65 2300 0 2300 0 0 -65z m-1413 -607 c56 -46 56 -214 0 -253
-12 -8 -40 -15 -63 -15 -35 0 -47 5 -68 31 -14 17 -26 37 -26 45 0 20 69 19
76 -1 8 -20 40 -19 48 1 12 32 7 45 -13 34 -31 -16 -58 -12 -87 13 -50 43 -33
130 31 158 26 11 82 4 102 -13z m782 11 c26 -9 61 -51 61 -74 0 -3 -18 -5 -40
-5 -22 0 -40 5 -40 10 0 6 -9 10 -19 10 -19 0 -31 -18 -31 -48 0 -12 3 -13 12
-4 15 15 62 16 88 2 23 -12 40 -67 33 -104 -13 -64 -119 -91 -168 -42 -63 63
-38 236 36 257 35 10 33 10 68 -2z m-539 -31 c1 -18 -19 -81 -42 -140 l-43
-108 -37 0 c-21 0 -38 4 -38 8 0 5 18 50 40 101 22 50 40 94 40 97 0 2 -22 4
-50 4 l-50 0 0 35 0 35 90 0 90 0 0 -32z m350 -3 l0 -35 -60 0 c-45 0 -60 -4
-60 -14 0 -11 10 -13 39 -9 33 5 44 1 65 -20 36 -36 37 -107 1 -142 -48 -49
-158 -22 -167 40 -2 17 3 21 35 23 23 2 37 -1 37 -8 0 -21 45 -6 48 16 3 24
-25 41 -42 24 -5 -5 -27 -10 -48 -10 l-38 0 0 85 0 85 95 0 95 0 0 -35z m360
5 c0 -23 4 -30 20 -30 16 0 20 7 20 30 0 25 4 30 25 30 24 0 25 -2 25 -75 0
-73 -1 -75 -25 -75 -21 0 -25 5 -25 30 0 23 -4 30 -20 30 -16 0 -20 -7 -20
-30 0 -25 -4 -30 -25 -30 -24 0 -25 2 -25 75 0 73 1 75 25 75 21 0 25 -5 25
-30z m204 14 c26 -26 19 -37 -19 -31 -43 7 -45 0 -5 -15 34 -11 49 -50 30 -73
-18 -22 -73 -19 -95 5 -17 19 -17 20 0 26 10 4 26 2 36 -5 11 -6 19 -7 19 -2
0 6 -12 16 -27 23 -41 20 -51 43 -29 67 23 25 68 27 90 5z m146 -4 c0 -13 -7
-20 -20 -20 -18 0 -20 -7 -20 -55 0 -48 -2 -55 -20 -55 -18 0 -20 7 -20 55 0
48 -2 55 -20 55 -13 0 -20 7 -20 20 0 18 7 20 60 20 53 0 60 -2 60 -20z m60
-40 c0 -53 2 -60 20 -60 11 0 20 -7 20 -15 0 -11 -12 -15 -45 -15 l-45 0 0 75
c0 73 1 75 25 75 24 0 25 -3 25 -60z m-4381 35 c26 -13 41 -33 41 -56 0 -15
-77 -10 -90 6 -10 12 -16 13 -26 4 -19 -16 -9 -28 45 -50 25 -11 52 -27 59
-36 20 -28 14 -72 -14 -100 -23 -22 -32 -25 -80 -21 -56 5 -88 24 -97 59 -4
16 0 19 33 19 22 0 42 -4 45 -10 10 -15 45 -12 45 5 0 8 -26 27 -57 42 -55 27
-58 30 -61 69 -3 35 1 45 24 63 32 25 92 28 133 6z m251 -15 c0 -29 -2 -30
-45 -30 -41 0 -45 -2 -45 -25 0 -22 4 -25 40 -25 36 0 40 -2 40 -25 0 -22 -4
-25 -40 -25 -36 0 -40 -2 -40 -25 0 -23 4 -25 45 -25 43 0 45 -1 45 -30 l0
-30 -85 0 -85 0 0 135 0 135 85 0 85 0 0 -30z m160 -40 c25 -38 48 -70 53 -70
4 0 7 32 7 70 l0 70 35 0 35 0 0 -135 0 -135 -37 0 c-36 0 -41 4 -85 73 l-48
72 0 -72 0 -73 -40 0 -40 0 0 135 0 135 38 0 c35 0 40 -4 82 -70z m372 40 c-4
-27 -8 -30 -38 -30 l-34 0 0 -105 0 -105 -35 0 -35 0 0 105 0 105 -35 0 c-32
0 -35 2 -35 30 l0 30 108 0 109 0 -5 -30z m2572 -173 c11 -8 17 -23 14 -38 -2
-20 -9 -24 -37 -24 -48 0 -65 29 -32 56 28 23 32 23 55 6z m1074 -327 l3 -60
-2301 0 -2300 0 0 58 c0 32 2 61 4 63 2 2 1036 3 2298 2 l2293 -2 3 -61z"/>
<path d="M7049 11615 c-440 -69 -837 -311 -1092 -667 -81 -112 -186 -319 -227
-445 -57 -178 -74 -297 -75 -508 0 -114 5 -220 13 -265 63 -355 218 -658 461
-900 143 -142 300 -255 456 -326 33 -15 74 -34 90 -42 28 -13 34 -13 65 8 25
15 28 20 11 15 -16 -5 -21 -4 -17 4 5 7 -4 11 -24 11 -21 0 -29 4 -24 12 4 6
3 8 -4 4 -6 -3 -27 5 -47 19 -28 19 -42 22 -55 15 -25 -13 -33 -13 -24 2 4 6
3 8 -4 4 -15 -9 -63 15 -55 28 3 6 2 8 -2 4 -21 -19 -241 141 -357 259 -241
245 -396 545 -452 873 -28 167 -24 423 10 590 100 485 428 911 869 1130 243
121 466 173 730 172 273 -1 513 -57 730 -170 40 -21 71 -33 68 -26 -11 29
-242 128 -382 164 -196 50 -472 64 -662 35z m-442 -3081 c-3 -3 -12 -4 -19 -1
-8 3 -5 6 6 6 11 1 17 -2 13 -5z m83 -44 c8 -5 11 -10 5 -10 -5 0 -17 5 -25
10 -8 5 -10 10 -5 10 6 0 17 -5 25 -10z"/>
<path d="M7188 11501 c-20 -4 -45 -18 -55 -30 -13 -15 -36 -24 -78 -31 -33 -5
-83 -16 -112 -23 -45 -12 -55 -12 -77 2 -34 20 -86 7 -223 -59 -150 -71 -211
-114 -218 -154 -5 -23 -21 -44 -59 -74 -28 -23 -67 -57 -86 -77 -25 -26 -42
-35 -66 -35 -18 0 -40 -7 -49 -16 -78 -78 -235 -317 -235 -357 0 -10 4 -26 9
-36 12 -22 -65 -251 -84 -251 -44 0 -66 -92 -72 -306 l-6 -162 26 -22 c18 -16
28 -37 33 -69 3 -25 12 -76 20 -113 12 -60 12 -70 -3 -97 -16 -27 -16 -32 1
-88 24 -78 134 -301 162 -330 13 -13 34 -23 47 -23 15 0 31 -10 41 -25 9 -14
43 -56 76 -95 48 -55 60 -76 60 -103 0 -30 8 -42 67 -92 75 -64 186 -141 251
-174 36 -18 49 -20 75 -12 28 9 46 5 141 -34 60 -24 114 -52 120 -62 5 -10 17
-23 25 -30 30 -22 193 -45 321 -45 116 0 125 1 142 22 14 17 35 24 95 32 43 5
96 13 118 18 30 7 43 5 56 -6 25 -22 73 -17 170 21 200 77 289 136 289 190 0
8 9 19 20 25 11 6 52 38 91 70 55 46 79 60 103 60 21 0 43 10 63 28 43 39 155
182 198 251 30 51 35 67 34 113 -3 68 65 234 104 254 52 28 81 175 81 417 l1
179 -26 22 c-14 13 -31 36 -37 52 l-10 29 -1 -32 c-1 -32 -21 -48 -21 -17 0 8
-5 12 -11 9 -6 -4 -8 -13 -5 -20 3 -8 -1 -18 -8 -24 -10 -8 -15 -61 -19 -194
-4 -127 -12 -210 -26 -275 -15 -72 -17 -99 -9 -118 20 -43 -63 -237 -105 -248
-16 -4 -37 -27 -61 -69 -20 -35 -55 -83 -76 -108 l-39 -44 -1 143 c0 114 3
148 16 167 13 21 14 28 2 52 -7 15 -21 29 -31 31 -60 12 -102 -39 -72 -85 14
-20 16 -52 12 -211 -5 -225 -11 -256 -54 -290 l-33 -25 0 327 c0 274 2 328 14
332 21 8 37 60 27 87 -10 25 -51 66 -51 50 0 -5 9 -18 20 -28 11 -10 20 -30
20 -45 0 -15 -9 -35 -20 -45 -19 -17 -20 -31 -20 -350 l0 -332 -25 -23 -25
-23 0 351 0 351 -25 25 c-15 15 -25 20 -25 12 0 -8 7 -19 15 -26 13 -11 15
-64 15 -371 0 -350 0 -359 -20 -369 -12 -6 -29 -9 -39 -5 -10 3 -51 -11 -98
-35 -44 -22 -83 -40 -87 -40 -3 0 -6 15 -6 33 0 28 13 46 90 122 l90 90 0 193
0 194 26 31 c20 24 24 37 20 61 -8 38 -33 66 -60 66 -21 -1 -21 -1 -1 -12 48
-26 60 -81 25 -113 -19 -17 -20 -31 -20 -214 l0 -196 -90 -90 c-84 -84 -90
-93 -92 -133 -1 -30 -7 -46 -19 -53 -28 -14 -29 -12 -29 50 l0 59 90 93 90 94
0 185 c0 173 -1 187 -20 203 -11 9 -20 24 -20 34 0 13 -3 14 -11 6 -9 -9 -8
-18 5 -37 9 -15 21 -26 26 -26 6 0 10 -69 10 -177 l0 -178 -95 -95 -94 -95 -3
-69 -3 -69 -63 -21 c-36 -12 -71 -31 -81 -44 -28 -38 -235 -68 -260 -38 -7 9
-48 15 -129 19 -64 3 -155 13 -202 22 -65 13 -92 14 -115 6 -34 -12 -86 1
-185 45 -40 18 -62 34 -70 53 -6 16 -36 41 -78 65 -71 41 -162 107 -225 163
-20 18 -47 33 -60 33 -24 0 -72 45 -141 132 -29 36 -35 52 -31 71 5 19 -2 41
-28 84 -36 62 -92 183 -123 266 -9 27 -28 55 -40 64 -23 15 -37 61 -54 183 -6
44 -5 59 8 73 13 14 17 45 19 135 2 64 10 156 18 203 11 67 12 93 3 117 -10
25 -9 41 6 89 32 104 57 152 84 166 16 7 43 41 67 82 22 39 60 99 85 134 l45
64 3 -137 c1 -80 -2 -144 -8 -155 -15 -29 -12 -56 8 -74 44 -40 112 -4 97 50
-5 15 -10 124 -12 242 l-4 214 33 34 c17 18 36 33 40 33 4 0 8 -140 8 -311 0
-296 -1 -312 -20 -336 -43 -55 -7 -133 63 -133 75 0 113 106 51 143 -11 6 -14
73 -14 352 l0 345 26 0 c14 0 58 19 97 43 40 23 84 48 100 55 26 11 27 10 27
-16 0 -21 -20 -48 -90 -117 l-90 -90 0 -193 c0 -179 -2 -196 -20 -219 -45 -58
-10 -133 63 -133 50 0 77 28 77 78 0 26 -7 45 -20 57 -19 17 -20 31 -20 199
l0 181 90 90 90 90 0 61 c0 59 1 62 27 68 14 4 39 21 55 38 24 25 45 35 111
50 99 21 136 22 161 3 14 -11 37 -13 90 -9 40 3 127 -1 202 -10 102 -12 138
-13 162 -4 26 10 44 7 131 -21 82 -27 103 -38 113 -59 8 -17 44 -43 97 -73 46
-25 125 -76 174 -112 60 -45 99 -67 118 -67 20 0 40 -14 80 -57 76 -84 91
-108 94 -145 1 -19 19 -58 42 -93 48 -71 70 -114 112 -216 22 -52 39 -79 55
-87 20 -9 28 -26 44 -97 12 -48 23 -90 26 -93 12 -11 5 46 -13 111 -10 37 -15
70 -10 73 7 4 21 -36 45 -131 5 -22 8 -25 11 -12 3 10 -3 50 -12 88 -14 56
-15 72 -5 84 20 24 6 85 -43 188 -83 176 -160 275 -197 252 -5 -3 -18 7 -30
22 -12 15 -48 56 -81 91 -45 49 -59 71 -59 94 0 36 -28 64 -139 142 -117 81
-203 126 -244 126 -20 0 -38 -4 -41 -8 -3 -5 -55 9 -117 29 -84 28 -118 45
-138 67 -21 25 -38 32 -91 41 -89 14 -297 22 -342 12z m297 -22 c101 -12 135
-28 135 -64 0 -39 -27 -58 -74 -51 -23 3 -115 8 -206 12 -177 7 -200 14 -200
60 0 42 34 54 150 54 58 0 146 -5 195 -11z m-365 -58 c0 -5 -19 -12 -42 -16
-24 -4 -71 -14 -106 -22 -58 -14 -85 -13 -69 4 9 9 154 41 190 42 15 1 27 -3
27 -8z m-252 -23 c16 -16 15 -63 0 -75 -7 -5 -35 -18 -63 -28 -43 -15 -113
-50 -277 -137 -43 -23 -74 -13 -84 28 -9 36 19 62 137 123 180 95 257 119 287
89z m875 -27 c97 -33 124 -46 111 -53 -12 -7 -224 63 -224 74 0 13 22 9 113
-21z m239 -47 c71 -36 206 -124 251 -164 53 -47 62 -66 42 -96 -24 -37 -57
-30 -134 30 -57 43 -171 114 -251 155 -23 12 -25 72 -4 88 25 18 38 17 96 -13z
m-1291 -258 l-91 -91 0 -182 c0 -181 0 -182 25 -207 31 -31 32 -62 3 -93 -29
-31 -71 -30 -97 3 -28 35 -26 59 4 90 25 25 25 25 25 222 l0 197 90 90 c76 76
90 95 90 122 0 20 6 36 18 42 15 9 17 4 20 -46 l3 -57 -90 -90z m-271 57 c-12
-9 -49 -40 -82 -69 -33 -30 -64 -54 -69 -54 -20 0 -6 19 48 66 86 75 117 96
121 84 3 -7 -6 -19 -18 -27z m40 -346 c0 -330 1 -343 20 -360 27 -23 25 -63
-5 -92 -37 -38 -76 -32 -100 16 -17 31 -6 75 20 85 13 5 15 51 15 340 0 307 1
334 18 343 9 6 20 11 25 11 4 0 7 -154 7 -343z m1942 150 c22 -26 38 -50 35
-54 -8 -8 -151 145 -155 166 -5 19 62 -43 120 -112z m-2167 77 c9 -4 21 -18
26 -32 11 -28 3 -43 -67 -129 -48 -59 -102 -141 -134 -202 -24 -49 -60 -63
-90 -36 -26 23 -25 46 1 98 57 112 207 307 236 307 6 0 19 -3 28 -6z m64 -428
c19 -26 20 -47 1 -66 -27 -27 -46 -25 -66 5 -15 23 -15 27 0 50 13 19 16 53
16 172 1 114 4 152 15 167 8 11 16 34 17 50 2 17 4 -59 5 -168 2 -110 7 -204
12 -210z m2250 235 c44 -64 118 -208 146 -282 19 -52 11 -83 -25 -94 -22 -7
-70 18 -70 36 0 20 -80 182 -126 255 -47 77 -53 103 -28 128 31 32 61 20 103
-43z m-2578 -273 c-10 -24 -28 -73 -40 -110 -13 -38 -27 -68 -33 -68 -13 0 -6
26 33 135 18 50 36 85 45 85 10 0 10 -9 -5 -42z m-60 -206 l22 -19 -16 -119
c-10 -65 -17 -160 -17 -211 0 -81 -2 -94 -19 -103 -30 -15 -56 -12 -76 10 -16
18 -17 33 -12 157 12 256 47 341 118 285z m2874 -197 c26 -129 -7 -474 -51
-542 -19 -30 -69 -31 -84 -2 -9 15 -8 37 4 87 23 102 39 288 32 378 -4 57 -2
85 7 96 26 34 84 23 92 -17z m-2903 -384 c10 -54 19 -103 20 -107 2 -5 -1 -10
-7 -12 -12 -4 -32 73 -41 156 -11 99 10 73 28 -37z m58 -151 c10 -5 26 -36 36
-67 10 -32 46 -114 81 -183 35 -68 63 -132 63 -142 0 -24 -44 -51 -69 -43 -39
12 -191 321 -191 388 0 46 39 69 80 47z m2716 -112 c-47 -121 -59 -148 -68
-148 -13 0 -10 8 26 95 18 44 36 88 39 98 4 9 11 17 17 17 5 0 -1 -28 -14 -62z
m-315 2 c20 -11 26 -54 9 -65 -6 -4 -10 -70 -10 -166 0 -130 -3 -164 -16 -184
-9 -14 -20 -25 -25 -25 -5 0 -9 83 -9 184 0 113 -4 187 -10 191 -16 10 -11 53
8 64 22 13 29 13 53 1z m232 -169 c13 -5 27 -19 30 -30 9 -36 -67 -157 -181
-289 -66 -76 -82 -86 -116 -70 -42 18 -35 63 17 118 56 59 128 153 162 213 15
26 34 51 43 57 21 12 16 12 45 1z m-2380 -248 c74 -92 84 -127 15 -48 -88 99
-112 136 -90 134 4 0 38 -39 75 -86z m192 -140 c28 -26 91 -73 140 -105 50
-31 100 -65 113 -73 46 -33 11 -104 -45 -90 -34 8 -198 116 -273 180 -67 57
-81 86 -55 115 29 32 64 25 120 -27z m1856 -45 c-68 -60 -140 -108 -146 -98
-3 5 23 29 57 53 35 25 74 57 87 71 13 14 29 22 34 19 6 -4 -8 -23 -32 -45z
m-171 -108 c25 -25 26 -52 3 -72 -28 -25 -169 -92 -276 -132 -94 -35 -100 -36
-123 -21 -14 9 -28 23 -31 31 -7 19 23 64 43 64 22 0 198 73 274 115 76 40 83
42 110 15z m-1277 -133 c91 -35 112 -47 83 -47 -26 0 -179 61 -196 78 -13 13
-13 14 5 9 11 -3 59 -21 108 -40z m264 -31 c49 -8 135 -17 193 -20 83 -5 108
-9 118 -23 16 -23 15 -43 -5 -65 -13 -15 -32 -18 -112 -18 -137 1 -310 32
-334 61 -27 34 -7 78 35 79 10 0 57 -6 105 -14z m566 -37 c-9 -9 -164 -39
-205 -39 -38 0 -15 19 30 25 26 3 67 10 92 14 68 13 96 13 83 0z"/>
<path d="M8155 11381 c11 -13 40 -37 65 -54 134 -91 274 -230 397 -392 88
-117 108 -126 33 -15 -88 128 -295 336 -420 420 -52 35 -86 53 -75 41z"/>
<path d="M8749 10713 c279 -558 209 -1241 -178 -1728 -66 -83 -190 -209 -246
-250 -22 -17 -42 -33 -45 -37 -3 -3 -43 -32 -90 -63 -153 -101 -366 -193 -525
-226 -59 -12 -84 -24 -73 -34 7 -7 115 18 213 50 512 167 920 591 1070 1110
45 158 59 264 59 465 0 161 -4 201 -27 311 -41 195 -135 437 -187 484 -17 15
-9 -7 29 -82z"/>
<path d="M7150 10667 c-24 -12 -25 -17 -28 -116 l-3 -103 -82 2 c-121 4 -119
4 -115 -27 3 -26 7 -29 66 -37 l62 -10 0 -373 0 -373 -27 0 c-16 0 -45 -5 -65
-11 -30 -8 -38 -15 -38 -33 0 -32 16 -36 110 -29 l80 6 0 -92 c0 -78 3 -94 20
-111 24 -24 48 -25 78 -4 20 14 22 24 22 104 0 49 3 91 8 93 4 2 28 2 55 -1
l47 -4 0 -87 c0 -72 3 -91 18 -104 25 -23 57 -21 82 5 17 18 20 35 20 109 l0
87 36 7 c63 11 143 56 183 102 46 52 67 121 56 191 -9 61 -69 124 -135 142
l-45 12 25 17 c91 60 132 124 133 210 0 88 -37 142 -123 180 -25 11 -61 22
-82 26 l-36 7 -4 95 c-3 85 -5 97 -27 114 -31 25 -47 24 -76 -6 -23 -22 -25
-32 -25 -110 l0 -85 -50 0 -50 0 0 89 c0 85 -1 91 -26 110 -31 24 -31 25 -64
8z m58 -19 c8 -8 12 -47 12 -110 l0 -98 39 0 c21 0 53 3 70 6 l31 7 0 91 c0
97 7 116 45 116 38 0 45 -19 45 -121 l0 -97 43 -7 c158 -26 238 -130 195 -256
-20 -61 -65 -107 -141 -144 -69 -33 -70 -35 -36 -35 57 0 133 -27 161 -57 39
-42 48 -66 48 -125 0 -65 -26 -125 -71 -162 -38 -32 -129 -76 -158 -76 -47 0
-51 -7 -51 -104 0 -98 -7 -116 -47 -116 -33 0 -43 29 -43 123 l0 83 -67 0 -68
-1 -1 -92 c-2 -102 -6 -113 -37 -113 -45 0 -52 14 -57 116 l-5 96 -85 2 c-117
2 -122 24 -9 41 l37 5 7 191 c4 105 4 278 0 384 l-7 194 -54 7 c-57 7 -90 29
-59 40 9 4 54 4 101 0 l84 -7 0 100 c0 77 4 103 16 115 18 19 45 21 62 4z"/>
<path d="M7243 10403 l-32 -4 -3 -185 c-2 -101 -1 -189 0 -194 8 -24 201 -1
263 31 95 48 107 208 23 293 -51 50 -150 74 -251 59z m162 -24 c82 -23 146
-124 130 -208 -18 -97 -73 -132 -217 -139 l-98 -5 0 135 c0 74 3 156 6 182 l7
46 66 0 c36 0 84 -5 106 -11z"/>
<path d="M7210 9796 l0 -184 68 -8 c78 -8 158 6 207 36 64 40 94 154 61 233
-31 75 -108 107 -256 107 l-80 0 0 -184z m231 154 c73 -20 113 -99 99 -196
-14 -95 -77 -134 -217 -134 l-90 0 -7 46 c-3 26 -6 102 -6 170 l0 124 93 0
c50 0 108 -5 128 -10z"/>
<path d="M8091 9674 c-12 -15 -21 -36 -20 -48 0 -17 4 -14 15 12 9 20 27 39
47 47 32 14 32 14 5 15 -17 0 -34 -9 -47 -26z"/>
<path d="M7973 9530 c-21 -8 -60 -57 -52 -64 2 -1 21 15 43 36 21 21 37 38 35
37 -2 0 -14 -4 -26 -9z"/>
<path d="M7029 8412 c-23 -10 -6 -52 20 -52 14 0 18 5 14 21 -4 13 -11 18 -21
14 -12 -4 -13 -3 -2 10 14 16 13 17 -11 7z"/>
<path d="M7227 8363 c-15 -15 -5 -20 43 -22 39 -1 50 2 50 14 0 11 -11 15 -43
15 -24 0 -47 -3 -50 -7z"/>
<path d="M7480 8362 c0 -4 18 -6 40 -4 22 2 40 6 40 8 0 2 -18 4 -40 4 -22 0
-40 -3 -40 -8z"/>
<path d="M8295 7528 c-35 -18 -45 -40 -45 -92 1 -75 41 -114 106 -102 46 9 74
48 74 103 0 77 -72 126 -135 91z"/>
<path d="M6290 6855 c0 -34 1 -35 40 -35 29 0 42 5 50 19 14 27 -12 51 -56 51
-32 0 -34 -2 -34 -35z"/>
<path d="M6290 6725 c0 -42 17 -52 63 -38 23 6 33 16 35 32 5 29 -12 41 -60
41 -37 0 -38 -1 -38 -35z"/>
<path d="M6657 6806 c-23 -66 -22 -66 19 -66 34 0 36 2 30 26 -4 15 -13 41
-20 58 l-12 31 -17 -49z"/>
<path d="M7227 6806 c-23 -66 -22 -66 19 -66 34 0 36 2 30 26 -4 15 -13 41
-20 58 l-12 31 -17 -49z"/>
<path d="M6428 5823 c-34 -8 -33 -67 1 -76 27 -7 51 11 51 38 0 26 -25 44 -52
38z"/>
<path d="M6687 5703 c-12 -12 -7 -50 8 -63 12 -10 21 -10 40 -2 25 12 30 27
19 56 -6 16 -54 22 -67 9z"/>
<path d="M8296 4664 c-11 -28 -6 -90 8 -110 33 -43 70 31 52 103 -7 27 -50 33
-60 7z"/>
<path d="M5090 4650 c0 -28 3 -31 28 -28 21 2 27 8 27 28 0 20 -6 26 -27 28
-25 3 -28 0 -28 -28z"/>
<path d="M6660 4606 l0 -76 28 6 c41 10 62 33 62 69 0 36 -22 60 -62 70 l-28
7 0 -76z"/>
<path d="M7050 4205 l0 -45 1265 0 1265 0 0 45 0 45 -1265 0 -1265 0 0 -45z"/>
<path d="M8104 3536 c-9 -24 4 -48 23 -44 12 2 18 12 18 28 0 29 -32 41 -41
16z"/>
<path d="M8917 3444 c-10 -10 -9 -42 2 -48 18 -11 42 6 39 28 -3 21 -28 33
-41 20z"/>
<path d="M6220 3076 l0 -46 1680 0 1680 0 0 43 0 42 -1680 3 -1680 4 0 -46z"/>
</g>
</svg>
