<?xml version="1.0" encoding="utf-8"?>
<!-- Generator: Adobe Illustrator 24.3.0, SVG Export Plug-In . SVG Version: 6.00 Build 0)  -->
<svg version="1.1" id="Layer_1" xmlns="http://www.w3.org/2000/svg" xmlns:xlink="http://www.w3.org/1999/xlink" x="0px" y="0px"
	 viewBox="0 0 1000 1000" style="enable-background:new 0 0 1000 1000;" xml:space="preserve">
<style type="text/css">
	.st0{opacity:0.5;}
	.st1{fill:url(#SVGID_1_);}
	.st2{fill:#A0F2FE;}
	.st3{fill:url(#SVGID_2_);}
	.st4{opacity:0.25;fill:url(#SVGID_3_);}
	.st5{opacity:0.2;fill:#482BB8;}
	.st6{fill:#340D58;}
	.st7{fill:#324DB5;}
	.st8{fill:url(#SVGID_4_);}
	.st9{fill:url(#SVGID_5_);}
	.st10{opacity:0.25;fill:url(#SVGID_6_);}
	.st11{opacity:0.4;fill:#73CFFE;}
	.st12{fill:#66C6FE;}
	.st13{opacity:0.4;fill:url(#SVGID_7_);}
	.st14{opacity:0.4;fill:url(#SVGID_8_);}
	.st15{opacity:0.2;fill:url(#SVGID_9_);}
	.st16{fill:url(#SVGID_10_);}
	.st17{fill:url(#SVGID_11_);}
	.st18{fill:#514DDF;}
	.st19{fill:#FFFFFF;}
	.st20{font-family:'MyriadPro-Regular';}
	.st21{font-size:47.3886px;}
	.st22{font-size:31.5924px;}
	.st23{fill:none;stroke:#FFFFFF;stroke-miterlimit:10;}
	.st24{font-size:55.5123px;}
	.st25{font-size:27.7953px;}
	.st26{font-size:17.8684px;}
	.st27{font-size:9.0452px;}
</style>
<g>
	<g>
		<g>
			<g class="st0">
				<g>
					
						<radialGradient id="SVGID_1_" cx="877.8824" cy="992.946" r="220.6887" gradientTransform="matrix(1 0 0.0803 0.7355 -188.6645 53.7092)" gradientUnits="userSpaceOnUse">
						<stop  offset="0" style="stop-color:#53A5F8"/>
						<stop  offset="0.6899" style="stop-color:#79CEFC"/>
						<stop  offset="1" style="stop-color:#8CE2FE"/>
					</radialGradient>
					<path class="st1" d="M929.9,695.95l-1.02,1.7L862.7,387.08c-2.5-11.75-20.6-21.13-40.45-21.13H605.46
						c-19.85,0-35.9,9.38-35.84,21.13l1.62,311.12l-1.34-1.72l1.58,14.52l0.01-0.02c2.19,16.68,21.8,29.98,45.62,29.98h275.34
						c24.18,0,41.04-13.71,38.99-30.75l0.02,0.02L929.9,695.95z"/>
					<path class="st2" d="M890.82,725.96H615.48c-25.21,0-45.73-14.91-45.83-32.95l-1.67-320.93
						c-0.06-11.75,15.98-21.13,35.84-21.13h216.79c19.85,0,37.95,9.38,40.45,21.13l68.39,320.93
						C933.3,711.05,916.03,725.96,890.82,725.96z"/>
					
						<radialGradient id="SVGID_2_" cx="984.1624" cy="491.1576" r="410.0679" gradientTransform="matrix(1 0 0.0803 0.7355 -188.6645 53.7092)" gradientUnits="userSpaceOnUse">
						<stop  offset="0" style="stop-color:#3E068D"/>
						<stop  offset="1" style="stop-color:#29013E"/>
					</radialGradient>
					<path class="st3" d="M887.18,720.55H617.94c-22.53,0-40.91-13.29-41.06-29.41l-2.98-317.83c-0.1-10.56,14.28-19,32.11-19
						h213.16c17.83,0,34.06,8.44,36.26,19l66.4,317.83C925.19,707.26,909.71,720.55,887.18,720.55z"/>
					
						<radialGradient id="SVGID_3_" cx="886.6176" cy="921.6544" r="410.0699" gradientTransform="matrix(1 0 0.0803 0.7355 -188.6645 53.7092)" gradientUnits="userSpaceOnUse">
						<stop  offset="0" style="stop-color:#8CE2FE"/>
						<stop  offset="0.056" style="stop-color:#79CEFC"/>
						<stop  offset="0.1806" style="stop-color:#53A5F8"/>
						<stop  offset="0.27" style="stop-color:#4B84D2"/>
						<stop  offset="0.3927" style="stop-color:#415DA6"/>
						<stop  offset="0.5165" style="stop-color:#393C81"/>
						<stop  offset="0.6395" style="stop-color:#322364"/>
						<stop  offset="0.7615" style="stop-color:#2E104F"/>
						<stop  offset="0.8822" style="stop-color:#2B0643"/>
						<stop  offset="1" style="stop-color:#2A023F"/>
					</radialGradient>
					<path class="st4" d="M887.18,720.55H617.94c-22.53,0-40.91-13.29-41.06-29.41l-2.98-317.83c-0.1-10.56,14.28-19,32.11-19
						h213.16c17.83,0,34.06,8.44,36.26,19l66.4,317.83C925.19,707.26,909.71,720.55,887.18,720.55z"/>
					<path class="st5" d="M904.04,606.02l-48.62-232.7c-2.21-10.56-18.43-19-36.26-19H606c-17.83,0-32.21,8.44-32.11,19l0.05,5.77
						C661.79,463.75,773.47,533.89,904.04,606.02z"/>
					<path class="st6" d="M734.25,363.15h-41.41c-1.28,0-2.36-0.6-2.43-1.35l0,0c-0.07-0.74,0.91-1.34,2.18-1.34h41.33
						c1.27,0,2.38,0.6,2.47,1.34l0,0C736.49,362.55,735.53,363.15,734.25,363.15z"/>
				</g>
				<path class="st7" d="M766.23,735.83h-24c-1.35,0-2.93-0.83-3.55-1.91l0,0c-0.67-1.16,0-2.16,1.53-2.16h27.15
					c1.53,0,2.41,1,2,2.16l0,0C768.97,735.01,767.58,735.83,766.23,735.83z"/>
			</g>
			<g class="st0">
				<g>
					
						<radialGradient id="SVGID_4_" cx="-874.4913" cy="992.946" r="220.6888" gradientTransform="matrix(-1 0 -0.0803 0.7355 -572.7679 53.7092)" gradientUnits="userSpaceOnUse">
						<stop  offset="0" style="stop-color:#53A5F8"/>
						<stop  offset="0.6899" style="stop-color:#79CEFC"/>
						<stop  offset="1" style="stop-color:#8CE2FE"/>
					</radialGradient>
					<path class="st8" d="M61.04,695.95l1.02,1.7l66.19-310.57c2.5-11.75,20.6-21.13,40.45-21.13h216.79
						c19.85,0,35.9,9.38,35.84,21.13L419.7,698.2l1.34-1.72L419.45,711l-0.01-0.02c-2.19,16.68-21.8,29.98-45.62,29.98H98.48
						c-24.18,0-41.04-13.71-38.99-30.75l-0.02,0.02L61.04,695.95z"/>
					<path class="st2" d="M100.12,725.96h275.34c25.21,0,45.73-14.91,45.83-32.95l1.67-320.93c0.06-11.75-15.98-21.13-35.84-21.13
						H170.33c-19.85,0-37.95,9.38-40.45,21.13L61.49,693.01C57.64,711.05,74.91,725.96,100.12,725.96z"/>
					
						<radialGradient id="SVGID_5_" cx="-768.2115" cy="491.1576" r="410.0679" gradientTransform="matrix(-1 0 -0.0803 0.7355 -572.7679 53.7092)" gradientUnits="userSpaceOnUse">
						<stop  offset="0" style="stop-color:#3E068D"/>
						<stop  offset="1" style="stop-color:#29013E"/>
					</radialGradient>
					<path class="st9" d="M103.76,720.55H373c22.53,0,40.91-13.29,41.06-29.41l2.98-317.83c0.1-10.56-14.28-19-32.11-19H171.78
						c-17.83,0-34.06,8.44-36.26,19l-66.4,317.83C65.75,707.26,81.23,720.55,103.76,720.55z"/>
					
						<radialGradient id="SVGID_6_" cx="-865.7562" cy="921.6544" r="410.0697" gradientTransform="matrix(-1 0 -0.0803 0.7355 -572.7679 53.7092)" gradientUnits="userSpaceOnUse">
						<stop  offset="0" style="stop-color:#8CE2FE"/>
						<stop  offset="0.056" style="stop-color:#79CEFC"/>
						<stop  offset="0.1806" style="stop-color:#53A5F8"/>
						<stop  offset="0.27" style="stop-color:#4B84D2"/>
						<stop  offset="0.3927" style="stop-color:#415DA6"/>
						<stop  offset="0.5165" style="stop-color:#393C81"/>
						<stop  offset="0.6395" style="stop-color:#322364"/>
						<stop  offset="0.7615" style="stop-color:#2E104F"/>
						<stop  offset="0.8822" style="stop-color:#2B0643"/>
						<stop  offset="1" style="stop-color:#2A023F"/>
					</radialGradient>
					<path class="st10" d="M103.76,720.55H373c22.53,0,40.91-13.29,41.06-29.41l2.98-317.83c0.1-10.56-14.28-19-32.11-19H171.78
						c-17.83,0-34.06,8.44-36.26,19l-66.4,317.83C65.75,707.26,81.23,720.55,103.76,720.55z"/>
					<path class="st5" d="M86.9,606.02l48.62-232.7c2.21-10.56,18.43-19,36.26-19h213.16c17.83,0,32.21,8.44,32.11,19l-0.05,5.77
						C329.15,463.75,217.48,533.89,86.9,606.02z"/>
					<path class="st6" d="M256.69,363.15h41.41c1.28,0,2.36-0.6,2.43-1.35l0,0c0.07-0.74-0.91-1.34-2.18-1.34h-41.33
						c-1.27,0-2.38,0.6-2.47,1.34l0,0C254.46,362.55,255.41,363.15,256.69,363.15z"/>
				</g>
				<path class="st7" d="M224.71,735.83h24c1.35,0,2.93-0.83,3.55-1.91l0,0c0.67-1.16,0-2.16-1.53-2.16h-27.15
					c-1.53,0-2.41,1-2,2.16l0,0C221.97,735.01,223.36,735.83,224.71,735.83z"/>
			</g>
		</g>
		<g>
			<path class="st11" d="M495.74,718.51l-0.01-3.48c1.58,0,3.15-0.01,4.72-0.03l0.08,3.48C498.94,718.5,497.34,718.51,495.74,718.51
				z M483.81,718.39c-1.59-0.04-3.18-0.08-4.76-0.13l0.21-3.48c1.56,0.05,3.13,0.09,4.7,0.13L483.81,718.39z M512.46,718.2
				l-0.23-3.48c1.57-0.06,3.15-0.12,4.72-0.19l0.3,3.48C515.65,718.07,514.06,718.14,512.46,718.2z M467.13,717.73
				c-1.59-0.09-3.17-0.19-4.75-0.29l0.43-3.47c1.56,0.1,3.12,0.2,4.68,0.29L467.13,717.73z M529.14,717.3l-0.45-3.47
				c1.57-0.11,3.13-0.23,4.69-0.36l0.53,3.46C532.32,717.07,530.74,717.19,529.14,717.3z M450.52,716.5
				c-1.58-0.15-3.15-0.3-4.73-0.46l0.65-3.45c1.55,0.16,3.1,0.31,4.66,0.45L450.52,716.5z M545.75,715.83l-0.68-3.45
				c1.56-0.17,3.12-0.34,4.67-0.52l0.74,3.44C548.91,715.48,547.33,715.66,545.75,715.83z M434.01,714.68
				c-1.57-0.2-3.13-0.41-4.69-0.63l0.88-3.42c1.54,0.21,3.08,0.42,4.63,0.62L434.01,714.68z M562.24,713.76l-0.9-3.42
				c1.55-0.22,3.09-0.45,4.63-0.69l0.97,3.41C565.37,713.31,563.81,713.54,562.24,713.76z M417.63,712.28
				c-1.55-0.26-3.1-0.52-4.65-0.79l1.11-3.39c1.52,0.27,3.05,0.53,4.58,0.78L417.63,712.28z M578.57,711.11l-1.13-3.38
				c1.53-0.28,3.05-0.56,4.57-0.85l1.19,3.37C581.67,710.54,580.13,710.83,578.57,711.11z M401.43,709.29
				c-1.53-0.31-3.06-0.63-4.58-0.96l1.33-3.34c1.5,0.32,3.01,0.64,4.52,0.95L401.43,709.29z M594.72,707.88l-1.36-3.34
				c1.51-0.33,3.01-0.67,4.51-1.02l1.42,3.32C597.77,707.2,596.24,707.54,594.72,707.88z M385.44,705.71
				c-1.51-0.37-3.02-0.74-4.52-1.13l1.56-3.29c1.48,0.38,2.96,0.75,4.45,1.11L385.44,705.71z M610.61,704.05l-1.58-3.28
				c1.48-0.39,2.96-0.78,4.43-1.18l1.65,3.26C613.62,703.26,612.12,703.66,610.61,704.05z M369.72,701.55
				c-1.48-0.43-2.96-0.86-4.43-1.29l1.78-3.23c1.45,0.43,2.91,0.86,4.37,1.28L369.72,701.55z M626.23,699.65l-1.81-3.22
				c1.45-0.44,2.9-0.89,4.34-1.35l1.88,3.2C629.18,698.75,627.71,699.2,626.23,699.65z M354.3,696.82c-1.45-0.48-2.9-0.96-4.34-1.46
				l2-3.16c1.42,0.48,2.85,0.96,4.28,1.44L354.3,696.82z M641.53,694.67l-2.03-3.15c1.42-0.49,2.84-1,4.25-1.51l2.09,3.13
				C644.41,693.66,642.97,694.17,641.53,694.67z M339.23,691.51c-1.42-0.53-2.83-1.07-4.23-1.62l2.21-3.08
				c1.38,0.54,2.78,1.07,4.18,1.6L339.23,691.51z M656.47,689.12l-2.24-3.07c1.39-0.55,2.77-1.1,4.14-1.67l2.3,3.04
				C659.27,688,657.87,688.56,656.47,689.12z M324.54,685.64c-1.38-0.59-2.75-1.18-4.11-1.78l2.43-2.99
				c1.34,0.59,2.69,1.17,4.05,1.75L324.54,685.64z M671,683.01l-2.46-2.98c1.35-0.6,2.68-1.21,4.01-1.82l2.52,2.95
				C673.72,681.78,672.36,682.4,671,683.01z M310.3,679.22c-1.34-0.64-2.66-1.28-3.98-1.93l2.64-2.89c1.3,0.64,2.6,1.28,3.92,1.9
				L310.3,679.22z M685.07,676.35l-2.67-2.88c1.3-0.65,2.59-1.31,3.87-1.98l2.73,2.85C687.7,675.02,686.39,675.69,685.07,676.35z
				 M296.53,672.26c-1.29-0.69-2.57-1.39-3.83-2.09l2.85-2.79c1.25,0.69,2.51,1.38,3.78,2.06L296.53,672.26z M698.65,669.13
				l-2.88-2.77c1.25-0.7,2.49-1.41,3.72-2.13l2.93,2.74C701.17,667.7,699.91,668.42,698.65,669.13z M283.29,664.75
				c-1.23-0.74-2.46-1.49-3.67-2.24l3.05-2.67c1.2,0.74,2.4,1.48,3.62,2.21L283.29,664.75z M711.66,661.39l-3.08-2.65
				c1.2-0.75,2.38-1.51,3.56-2.27l3.14,2.61C714.08,659.86,712.88,660.63,711.66,661.39z M270.64,656.72
				c-1.18-0.79-2.34-1.58-3.5-2.39l3.25-2.54c1.14,0.79,2.29,1.57,3.45,2.35L270.64,656.72z M724.07,653.13l-3.27-2.52
				c1.13-0.8,2.26-1.6,3.37-2.41l3.33,2.47C726.38,651.5,725.23,652.32,724.07,653.13z M258.6,648.18
				c-1.11-0.84-2.22-1.68-3.31-2.53l3.44-2.4c1.08,0.84,2.16,1.66,3.26,2.49L258.6,648.18z M735.84,644.36l-3.47-2.37
				c1.07-0.85,2.13-1.7,3.19-2.55l3.52,2.33C738.01,642.64,736.93,643.5,735.84,644.36z M247.25,639.15
				c-1.05-0.88-2.09-1.77-3.11-2.67l3.62-2.25c1.01,0.88,2.03,1.75,3.06,2.62L247.25,639.15z M746.9,635.12l-3.65-2.23
				c1-0.89,2-1.79,2.98-2.68l3.69,2.18C748.93,633.31,747.92,634.22,746.9,635.12z M236.62,629.65c-0.98-0.93-1.94-1.86-2.9-2.8
				l3.79-2.09c0.94,0.92,1.89,1.84,2.85,2.75L236.62,629.65z M757.21,625.42l-3.81-2.07c0.93-0.93,1.85-1.86,2.75-2.8l3.87,2.01
				C759.1,623.52,758.16,624.47,757.21,625.42z M226.76,619.71l-0.63-0.68c-0.69-0.75-1.37-1.49-2.04-2.24l3.96-1.92
				c0.66,0.74,1.33,1.47,2,2.2l0.62,0.67L226.76,619.71z M766.74,615.28l-3.98-1.89c0.85-0.97,1.7-1.95,2.53-2.92l4.02,1.84
				C768.46,613.3,767.61,614.29,766.74,615.28z M217.72,609.35c-0.82-1.01-1.63-2.02-2.42-3.03l4.1-1.74c0.78,1,1.58,1.99,2.38,2.98
				L217.72,609.35z M775.42,604.74l-4.13-1.71c0.77-1.01,1.53-2.02,2.28-3.03l4.16,1.66C776.97,602.69,776.2,603.72,775.42,604.74z
				 M209.56,598.61c-0.74-1.04-1.46-2.09-2.17-3.13l4.24-1.55c0.7,1.03,1.41,2.06,2.13,3.08L209.56,598.61z M783.2,593.83
				l-4.26-1.52c0.68-1.04,1.36-2.08,2.02-3.13l4.3,1.46C784.58,591.71,783.9,592.77,783.2,593.83z M202.31,587.52
				c-0.65-1.07-1.28-2.15-1.89-3.23l4.36-1.35c0.61,1.06,1.23,2.12,1.86,3.17L202.31,587.52z M790.04,582.58l-4.38-1.32
				c0.59-1.07,1.18-2.14,1.74-3.21l4.42,1.26C791.24,580.4,790.64,581.49,790.04,582.58z M196.02,576.11
				c-0.55-1.1-1.09-2.21-1.61-3.31l4.48-1.14c0.51,1.09,1.04,2.17,1.58,3.25L196.02,576.11z M795.89,571.03l-4.49-1.11
				c0.5-1.09,0.99-2.19,1.46-3.29l4.52,1.05C796.9,568.8,796.4,569.92,795.89,571.03z M190.74,564.42
				c-0.45-1.13-0.89-2.25-1.32-3.39l4.56-0.93c0.42,1.11,0.85,2.22,1.3,3.32L190.74,564.42z M800.72,559.23l-4.58-0.9
				c0.4-1.11,0.79-2.23,1.17-3.35l4.6,0.83C801.53,556.96,801.14,558.1,800.72,559.23z M186.5,552.5c-0.35-1.14-0.69-2.29-1.01-3.44
				l4.64-0.71c0.32,1.13,0.65,2.25,1,3.38L186.5,552.5z M804.5,547.22l-4.65-0.67c0.3-1.13,0.59-2.27,0.87-3.4l4.66,0.61
				C805.1,544.92,804.81,546.07,804.5,547.22z M183.34,540.4c-0.25-1.16-0.49-2.32-0.71-3.48l4.69-0.48
				c0.22,1.14,0.45,2.28,0.69,3.42L183.34,540.4z M807.19,535.06l-4.7-0.45c0.12-0.66,0.22-1.31,0.33-1.97l0.23-1.47l4.71,0.38
				l-0.23,1.49C807.42,533.73,807.31,534.39,807.19,535.06z M181.26,528.18c-0.14-1.17-0.28-2.34-0.39-3.51l4.72-0.25
				c0.11,1.15,0.24,2.3,0.38,3.44L181.26,528.18z M808.78,522.79l-4.73-0.21c0.1-1.15,0.18-2.3,0.24-3.45l4.73,0.15
				C808.96,520.45,808.88,521.62,808.78,522.79z M180.29,515.87c-0.04-1.18-0.06-2.35-0.07-3.52l4.74-0.02
				c0.01,1.15,0.03,2.3,0.07,3.45L180.29,515.87z M804.52,510.49c-0.01-1.15-0.03-2.3-0.07-3.45l4.74-0.09
				c0.04,1.17,0.06,2.35,0.07,3.52L804.52,510.49z M185.18,503.7l-4.73-0.15c0.07-1.17,0.15-2.35,0.25-3.52l4.73,0.22
				C185.33,501.4,185.25,502.55,185.18,503.7z M803.88,498.41c-0.11-1.15-0.24-2.3-0.38-3.45l4.72-0.31
				c0.14,1.17,0.27,2.34,0.39,3.51L803.88,498.41z M186.43,491.64l-4.71-0.38c0.17-1.17,0.36-2.33,0.57-3.5l4.7,0.45
				C186.79,489.35,186.61,490.5,186.43,491.64z M802.16,486.39c-0.22-1.14-0.45-2.28-0.7-3.42l4.68-0.55
				c0.25,1.16,0.49,2.32,0.71,3.48L802.16,486.39z M188.77,479.67l-4.66-0.61c0.28-1.15,0.57-2.31,0.88-3.46l4.65,0.67
				C189.33,477.41,189.05,478.54,188.77,479.67z M799.35,474.47c-0.32-1.13-0.65-2.25-1-3.38l4.62-0.77
				c0.35,1.14,0.69,2.29,1.02,3.44L799.35,474.47z M192.18,467.84l-4.6-0.83c0.38-1.14,0.78-2.28,1.19-3.41l4.58,0.89
				C192.94,465.6,192.55,466.72,192.18,467.84z M795.49,462.72c-0.41-1.11-0.84-2.22-1.29-3.32l4.54-0.99
				c0.45,1.13,0.89,2.25,1.32,3.39L795.49,462.72z M196.61,456.19l-4.52-1.05c0.48-1.12,0.97-2.23,1.48-3.35l4.49,1.11
				C197.57,453.99,197.09,455.09,196.61,456.19z M790.61,451.16l-0.09-0.19c-0.52-1.09-1.04-2.18-1.58-3.26l4.45-1.2
				c0.55,1.1,1.09,2.21,1.61,3.32l0.1,0.21L790.61,451.16z M202.05,444.77l-4.42-1.25c0.58-1.1,1.16-2.19,1.76-3.27l4.39,1.31
				C203.2,442.62,202.62,443.69,202.05,444.77z M784.64,439.67c-0.61-1.06-1.23-2.13-1.86-3.18l4.34-1.4
				c0.64,1.07,1.27,2.15,1.89,3.24L784.64,439.67z M208.45,433.63l-4.3-1.46c0.67-1.07,1.35-2.13,2.04-3.18l4.27,1.51
				C209.78,431.54,209.11,432.58,208.45,433.63z M777.8,428.66c-0.7-1.04-1.41-2.06-2.12-3.09l4.21-1.6
				c0.73,1.04,1.45,2.09,2.16,3.14L777.8,428.66z M215.79,422.8l-4.17-1.65c0.76-1.03,1.53-2.06,2.3-3.08l4.13,1.71
				C217.29,420.78,216.54,421.79,215.79,422.8z M770.05,417.98c-0.79-1-1.58-2-2.38-2.98l4.06-1.79c0.82,1,1.63,2.02,2.42,3.04
				L770.05,417.98z M224.03,412.33l-4.02-1.84c0.84-1,1.69-1.99,2.56-2.97l3.98,1.89C225.7,410.38,224.86,411.35,224.03,412.33z
				 M761.4,407.68c-0.87-0.96-1.74-1.92-2.62-2.87l3.91-1.97c0.9,0.97,1.79,1.94,2.67,2.92L761.4,407.68z M233.13,402.25l-3.87-2.01
				c0.92-0.96,1.85-1.91,2.8-2.85l3.82,2.06C234.95,400.38,234.03,401.31,233.13,402.25z M751.93,397.78
				c-0.94-0.92-1.9-1.84-2.86-2.75l3.74-2.14c0.98,0.92,1.94,1.86,2.9,2.8L751.93,397.78z M243.04,392.59l-3.69-2.18
				c1-0.92,2.01-1.82,3.02-2.72l3.64,2.23C245.01,390.8,244.02,391.69,243.04,392.59z M741.66,388.32
				c-0.83-0.72-1.67-1.44-2.52-2.16l-0.56-0.47l3.58-2.28l0.55,0.47c0.86,0.72,1.71,1.45,2.56,2.19L741.66,388.32z M253.71,383.38
				l-3.52-2.33c1.07-0.87,2.15-1.73,3.24-2.59l3.46,2.38C255.82,381.67,254.76,382.52,253.71,383.38z M730.65,379.32
				c-1.08-0.84-2.17-1.66-3.27-2.49l3.38-2.44c1.12,0.83,2.23,1.68,3.33,2.52L730.65,379.32z M265.1,374.63l-3.33-2.48
				c1.13-0.82,2.28-1.64,3.43-2.45l3.27,2.52C267.34,373.02,266.21,373.82,265.1,374.63z M718.96,370.79
				c-1.15-0.79-2.3-1.57-3.46-2.35l3.18-2.58c1.18,0.79,2.35,1.58,3.51,2.38L718.96,370.79z M277.14,366.37l-3.13-2.61
				c1.19-0.77,2.4-1.54,3.61-2.3l3.08,2.65C279.5,364.85,278.32,365.61,277.14,366.37z M706.63,362.76c-1.2-0.74-2.41-1.48-3.63-2.2
				l2.98-2.71c1.24,0.74,2.47,1.49,3.69,2.24L706.63,362.76z M289.79,358.62l-2.93-2.74c1.25-0.73,2.51-1.44,3.78-2.16l2.88,2.77
				C292.26,357.2,291.02,357.9,289.79,358.62z M693.72,355.24c-1.25-0.69-2.52-1.38-3.79-2.05l2.78-2.82
				c1.29,0.69,2.57,1.38,3.85,2.09L693.72,355.24z M302.99,351.38l-2.73-2.85c1.3-0.68,2.61-1.34,3.93-2l2.67,2.88
				C305.57,350.05,304.28,350.71,302.99,351.38z M680.28,348.24c-1.3-0.64-2.61-1.28-3.93-1.9l2.57-2.93c1.34,0.64,2.67,1.28,4,1.93
				L680.28,348.24z M316.71,344.66l-2.52-2.95c1.35-0.62,2.7-1.24,4.06-1.85l2.46,2.98C319.37,343.44,318.04,344.05,316.71,344.66z
				 M666.35,341.77c-1.35-0.59-2.71-1.17-4.07-1.75l2.37-3.02c1.38,0.59,2.75,1.18,4.12,1.78L666.35,341.77z M330.88,338.49
				l-2.31-3.04c1.39-0.57,2.79-1.13,4.19-1.69l2.25,3.07C333.63,337.37,332.25,337.92,330.88,338.49z M651.97,335.84
				c-1.39-0.54-2.78-1.07-4.18-1.59l2.15-3.11c1.42,0.53,2.84,1.07,4.24,1.62L651.97,335.84z M345.48,332.86l-2.1-3.12
				c1.43-0.52,2.86-1.03,4.3-1.53l2.03,3.15C348.3,331.84,346.88,332.35,345.48,332.86z M637.21,330.46
				c-1.42-0.49-2.85-0.96-4.28-1.43l1.93-3.18c1.46,0.48,2.91,0.96,4.35,1.46L637.21,330.46z M360.44,327.78l-1.87-3.2
				c1.46-0.46,2.93-0.92,4.4-1.37l1.81,3.22C363.33,326.87,361.88,327.32,360.44,327.78z M622.09,325.64
				c-1.45-0.43-2.91-0.86-4.38-1.27l1.71-3.25c1.49,0.42,2.97,0.85,4.44,1.29L622.09,325.64z M375.74,323.26l-1.66-3.26
				c1.49-0.41,2.99-0.81,4.49-1.2l1.59,3.28C378.68,322.46,377.21,322.86,375.74,323.26z M606.66,321.38
				c-1.48-0.38-2.97-0.75-4.46-1.11l1.49-3.31c1.51,0.37,3.02,0.75,4.52,1.13L606.66,321.38z M391.32,319.3l-1.43-3.32
				c1.52-0.35,3.04-0.7,4.56-1.04l1.37,3.33C394.31,318.61,392.81,318.96,391.32,319.3z M590.96,317.68
				c-1.51-0.32-3.01-0.64-4.53-0.95l1.26-3.36c1.54,0.31,3.07,0.63,4.6,0.96L590.96,317.68z M407.15,315.92l-1.21-3.37
				c1.54-0.3,3.08-0.59,4.63-0.87l1.14,3.38C410.19,315.34,408.66,315.63,407.15,315.92z M575.04,314.57
				c-1.52-0.27-3.05-0.53-4.59-0.78l1.04-3.4c1.55,0.26,3.1,0.52,4.65,0.8L575.04,314.57z M423.18,313.12l-0.98-3.41
				c1.55-0.24,3.11-0.48,4.68-0.7l0.92,3.42C426.26,312.65,424.72,312.88,423.18,313.12z M558.92,312.03
				c-1.54-0.21-3.08-0.42-4.63-0.62l0.82-3.43c1.57,0.2,3.14,0.41,4.7,0.63L558.92,312.03z M439.39,310.89l-0.75-3.44
				c1.57-0.19,3.14-0.37,4.72-0.54l0.69,3.45C442.49,310.53,440.94,310.71,439.39,310.89z M542.65,310.07
				c-1.55-0.16-3.11-0.31-4.67-0.46l0.59-3.46c1.58,0.15,3.16,0.3,4.73,0.46L542.65,310.07z M455.73,309.24l-0.54-3.46
				c1.58-0.13,3.16-0.25,4.75-0.37l0.47,3.47C458.85,308.99,457.29,309.11,455.73,309.24z M526.27,308.68
				c-1.56-0.1-3.13-0.2-4.69-0.29l0.37-3.47c1.59,0.09,3.17,0.19,4.76,0.29L526.27,308.68z M472.15,308.17l-0.31-3.48
				c1.59-0.08,3.18-0.14,4.77-0.2l0.24,3.48C475.29,308.03,473.72,308.1,472.15,308.17z M509.83,307.87
				c-1.56-0.05-3.13-0.09-4.7-0.12l0.14-3.48c1.59,0.04,3.19,0.08,4.77,0.13L509.83,307.87z M488.63,307.67l-0.08-3.48
				c1.59-0.02,3.18-0.03,4.78-0.04l0.02,3.48C491.77,307.64,490.2,307.65,488.63,307.67z"/>
			<path class="st12" d="M498.81,684.79l-0.03-1.74l2.38-0.03l0.05,1.74L498.81,684.79z M463,683.57l-2.37-0.19l0.27-1.73l2.35,0.19
				L463,683.57z M536.92,682.61l-0.34-1.72c0.78-0.08,1.57-0.17,2.35-0.26l0.36,1.72C538.51,682.44,537.72,682.53,536.92,682.61z
				 M425.34,678.76c-0.77-0.14-1.55-0.28-2.32-0.42l0.58-1.69c0.76,0.14,1.53,0.28,2.3,0.42L425.34,678.76z M574.34,676.79
				l-0.65-1.68l2.29-0.48l0.66,1.67L574.34,676.79z M388.89,670.28c-0.74-0.21-1.48-0.43-2.22-0.65l0.88-1.62
				c0.73,0.22,1.46,0.43,2.2,0.64L388.89,670.28z M610.34,667.31l-0.95-1.6c0.72-0.23,1.45-0.47,2.17-0.71l0.97,1.59
				C611.8,666.83,611.07,667.07,610.34,667.31z M354.37,658.2l-2.07-0.87l1.18-1.51l2.06,0.86L354.37,658.2z M644.21,654.25
				l-1.25-1.48l2.02-0.92l1.26,1.47L644.21,654.25z M322.53,642.65l-1.88-1.08l1.47-1.37l1.86,1.07L322.53,642.65z M675.2,637.75
				l-1.53-1.33c0.61-0.38,1.21-0.76,1.81-1.13l1.54,1.32C676.42,636.99,675.81,637.37,675.2,637.75z M294.17,623.79l-1.63-1.28
				l1.73-1.19l1.62,1.27L294.17,623.79z M702.45,618.01l-1.79-1.14c0.52-0.44,1.03-0.88,1.55-1.32l1.8,1.13
				C703.5,617.12,702.98,617.57,702.45,618.01z M270.13,601.92l-1.34-1.46l1.97-0.97l1.33,1.44L270.13,601.92z M725.16,595.36
				l-2.01-0.92c0.42-0.49,0.83-0.99,1.24-1.49l2.03,0.9C726,594.36,725.58,594.86,725.16,595.36z M251.23,577.46
				c-0.33-0.53-0.66-1.07-0.99-1.6l2.16-0.71c0.32,0.53,0.65,1.06,0.98,1.58L251.23,577.46z M742.48,570.27l-2.2-0.65
				c0.3-0.54,0.59-1.08,0.88-1.62l2.21,0.64C743.08,569.18,742.78,569.72,742.48,570.27z M238.28,550.98
				c-0.2-0.57-0.4-1.13-0.6-1.71l2.3-0.42c0.19,0.56,0.39,1.12,0.59,1.69L238.28,550.98z M753.65,543.35l-2.32-0.36
				c0.16-0.57,0.32-1.14,0.47-1.71l2.32,0.34C753.98,542.2,753.82,542.78,753.65,543.35z M231.92,523.24
				c-0.06-0.59-0.12-1.17-0.17-1.76l2.36-0.11c0.05,0.58,0.11,1.16,0.17,1.74L231.92,523.24z M758.11,515.4l-2.37-0.04
				c0.02-0.58,0.04-1.16,0.05-1.74l2.37,0.03C758.15,514.23,758.13,514.82,758.11,515.4z M234.83,495.28l-2.35-0.18
				c0.08-0.58,0.17-1.17,0.27-1.75l2.35,0.2C235,494.13,234.91,494.7,234.83,495.28z M753.27,487.59c-0.12-0.57-0.25-1.15-0.38-1.72
				l2.34-0.29c0.13,0.58,0.26,1.16,0.38,1.74L753.27,487.59z M242.19,467.98l-2.27-0.49c0.22-0.56,0.45-1.13,0.69-1.69l2.27,0.51
				C242.64,466.87,242.41,467.43,242.19,467.98z M744.09,460.6l-0.08-0.18c-0.26-0.55-0.52-1.1-0.79-1.64l2.23-0.59
				c0.27,0.55,0.54,1.11,0.8,1.66l0.08,0.17L744.09,460.6z M255.92,442.04l-2.13-0.77c0.35-0.53,0.71-1.05,1.07-1.57l2.11,0.78
				C256.61,441,256.26,441.52,255.92,442.04z M728.57,435c-0.38-0.51-0.77-1.02-1.16-1.52l2.06-0.86c0.39,0.51,0.78,1.02,1.17,1.54
				L728.57,435z M275.42,418.18l-1.92-1.02c0.47-0.48,0.94-0.95,1.41-1.42l1.91,1.03C276.35,417.24,275.88,417.71,275.42,418.18z
				 M707.54,411.84c-0.49-0.46-0.99-0.91-1.48-1.36l1.84-1.1c0.5,0.46,1,0.91,1.5,1.37L707.54,411.84z M299.97,396.98l-1.67-1.23
				c0.56-0.41,1.13-0.83,1.7-1.24l1.66,1.24C301.09,396.16,300.53,396.57,299.97,396.98z M681.7,391.47
				c-0.58-0.39-1.17-0.78-1.76-1.17l1.59-1.29c0.59,0.39,1.18,0.79,1.77,1.18L681.7,391.47z M328.71,378.82l-1.4-1.4l1.93-1.04
				l1.39,1.41L328.71,378.82z M651.93,374.23l-1.97-0.97l1.31-1.45l1.99,0.98L651.93,374.23z M360.77,363.95l-1.12-1.54
				c0.7-0.28,1.41-0.55,2.11-0.82l1.1,1.54C362.17,363.4,361.47,363.68,360.77,363.95z M619.07,360.33
				c-0.71-0.25-1.43-0.5-2.14-0.75l1.01-1.58c0.72,0.25,1.44,0.5,2.16,0.76L619.07,360.33z M395.35,352.52l-0.82-1.63l2.25-0.6
				l0.8,1.64L395.35,352.52z M583.91,349.91l-2.26-0.53l0.72-1.66l2.28,0.54L583.91,349.91z M431.73,344.66l-0.52-1.7
				c0.78-0.13,1.56-0.25,2.34-0.38l0.49,1.7C433.27,344.4,432.5,344.53,431.73,344.66z M547.16,343.07
				c-0.78-0.1-1.55-0.21-2.33-0.31l0.4-1.72c0.78,0.1,1.57,0.2,2.35,0.31L547.16,343.07z M469.21,340.41l-0.21-1.73l2.39-0.15
				l0.19,1.74L469.21,340.41z M509.49,339.87c-0.79-0.03-1.58-0.06-2.36-0.08l0.1-1.74c0.8,0.02,1.59,0.05,2.39,0.08L509.49,339.87z
				"/>
		</g>
	</g>
	<g>
		<g>
			<radialGradient id="SVGID_7_" cx="331.9273" cy="500" r="301.8928" gradientUnits="userSpaceOnUse">
				<stop  offset="0" style="stop-color:#53A5F8"/>
				<stop  offset="0.3364" style="stop-color:#446AB6;stop-opacity:0.6636"/>
				<stop  offset="0.7921" style="stop-color:#312061;stop-opacity:0.2079"/>
				<stop  offset="1" style="stop-color:#2A023F;stop-opacity:0"/>
			</radialGradient>
			<circle class="st13" cx="331.93" cy="500" r="301.89"/>
			<radialGradient id="SVGID_8_" cx="668.0728" cy="500" r="301.8928" gradientUnits="userSpaceOnUse">
				<stop  offset="0" style="stop-color:#53A5F8"/>
				<stop  offset="0.3364" style="stop-color:#446AB6;stop-opacity:0.6636"/>
				<stop  offset="0.7921" style="stop-color:#312061;stop-opacity:0.2079"/>
				<stop  offset="1" style="stop-color:#2A023F;stop-opacity:0"/>
			</radialGradient>
			<circle class="st14" cx="668.07" cy="500" r="301.89"/>
		</g>
		<g>
			<radialGradient id="SVGID_9_" cx="493.3817" cy="927.6274" r="586.4976" gradientUnits="userSpaceOnUse">
				<stop  offset="0" style="stop-color:#8CE2FE"/>
				<stop  offset="0.0404" style="stop-color:#85D1F0;stop-opacity:0.9596"/>
				<stop  offset="0.1815" style="stop-color:#6D9BC1;stop-opacity:0.8185"/>
				<stop  offset="0.3239" style="stop-color:#586C99;stop-opacity:0.6761"/>
				<stop  offset="0.4648" style="stop-color:#484679;stop-opacity:0.5352"/>
				<stop  offset="0.6039" style="stop-color:#3B2860;stop-opacity:0.3961"/>
				<stop  offset="0.7407" style="stop-color:#31134D;stop-opacity:0.2593"/>
				<stop  offset="0.874" style="stop-color:#2C0643;stop-opacity:0.126"/>
				<stop  offset="1" style="stop-color:#2A023F;stop-opacity:0"/>
			</radialGradient>
			<rect x="40.72" y="289.99" class="st15" width="918.57" height="587.01"/>
			<linearGradient id="SVGID_10_" gradientUnits="userSpaceOnUse" x1="65.1829" y1="875.511" x2="929.4857" y2="875.511">
				<stop  offset="0" style="stop-color:#2D0244"/>
				<stop  offset="0.3433" style="stop-color:#53A5F8"/>
				<stop  offset="0.3807" style="stop-color:#6ABDFA"/>
				<stop  offset="0.4236" style="stop-color:#7DD2FC"/>
				<stop  offset="0.4663" style="stop-color:#88DEFE"/>
				<stop  offset="0.5079" style="stop-color:#8CE2FE"/>
				<stop  offset="0.5578" style="stop-color:#79CEFC"/>
				<stop  offset="0.6687" style="stop-color:#53A5F8"/>
				<stop  offset="0.7337" style="stop-color:#497CCA"/>
				<stop  offset="0.8246" style="stop-color:#3D4891"/>
				<stop  offset="0.9025" style="stop-color:#342267"/>
				<stop  offset="0.9635" style="stop-color:#2F0B4E"/>
				<stop  offset="1" style="stop-color:#2D0244"/>
			</linearGradient>
			<rect x="65.18" y="874.02" class="st16" width="864.3" height="2.98"/>
			<path class="st2" d="M693.96,848.5H334.74c-14.23,0-25.76-11.53-25.76-25.76V148.76c0-14.23,11.53-25.76,25.76-25.76h359.23
				c14.23,0,25.76,11.53,25.76,25.76v673.98C719.72,836.97,708.19,848.5,693.96,848.5z"/>
			<radialGradient id="SVGID_11_" cx="646.5435" cy="248.638" r="581.9265" gradientUnits="userSpaceOnUse">
				<stop  offset="0" style="stop-color:#3E068D"/>
				<stop  offset="1" style="stop-color:#29013E"/>
			</radialGradient>
			<path class="st17" d="M688.37,840.24H340.32c-12.75,0-23.09-10.34-23.09-23.09v-662.8c0-12.75,10.34-23.09,23.09-23.09h348.05
				c12.75,0,23.09,10.34,23.09,23.09v662.8C711.46,829.9,701.12,840.24,688.37,840.24z"/>
			<path class="st18" d="M543.55,152.75h-58.4c-1.8,0-3.26-1.46-3.26-3.26l0,0c0-1.8,1.46-3.26,3.26-3.26h58.4
				c1.8,0,3.26,1.46,3.26,3.26l0,0C546.81,151.29,545.35,152.75,543.55,152.75z"/>
			<g>
				<g>
					<g>
						<path class="st19" d="M346.84,463.05h3.02v7.98h7.37v-7.98h3.02v19.51h-3.02v-8.9h-7.37v8.9h-3.02V463.05z"/>
						<path class="st19" d="M364.65,477.03V468h2.97v8.64c0,2.52,0.84,3.71,3.03,3.71c1.52,0,2.62-0.67,4.08-2.4V468h2.97v14.55
							h-2.45l-0.24-2.43h-0.12c-1.42,1.65-3.08,2.78-5.29,2.78C366.19,482.91,364.65,480.82,364.65,477.03z"/>
						<path class="st19" d="M382.31,480.65l1.32-1.92c1.71,1.17,3.69,1.91,6.2,1.91c2.23,0,3.3-0.89,3.3-1.98
							c0-1.03-0.6-1.68-4.27-2.44c-3.84-0.8-5.65-2.13-5.65-4.33c0-2.43,2.19-4.24,6.22-4.24c2.32,0,4.52,0.91,5.98,1.89l-1.39,1.85
							c-1.38-0.92-3.06-1.49-4.85-1.49c-2.16,0-3,0.85-3,1.85c0,1.14,1.16,1.59,4.02,2.2c4.73,1.04,5.92,2.26,5.92,4.53
							c0,2.44-2.36,4.44-6.66,4.44C386.68,482.91,384.1,481.88,382.31,480.65z"/>
						<path class="st19" d="M404.1,476.8v-6.43h-4.01v-2.21l4.13-0.15l0.39-4.61h2.46V468h6.87v2.37h-6.87v6.44
							c0,2.5,0.89,3.71,3.52,3.71c1.28,0,2.32-0.26,3.32-0.62l0.6,2.17c-1.31,0.45-2.75,0.85-4.6,0.85
							C405.55,482.91,404.1,480.45,404.1,476.8z"/>
						<path class="st19" d="M423.09,477.46v-13.66h-5v-2.37h7.97v16.2c0,2.02,1.14,2.83,2.74,2.83c0.79,0,1.64-0.19,2.6-0.61
							l0.71,2.2c-1.39,0.55-2.37,0.85-4.01,0.85C424.85,482.91,423.09,480.97,423.09,477.46z"/>
						<path class="st19" d="M435.87,475.25c0-4.74,3.57-7.61,7.46-7.61c4.27,0,6.7,2.8,6.7,6.87c0,0.63-0.08,1.23-0.14,1.61h-11.98
							v-2.17h10.13l-0.64,0.72c0-3.15-1.53-4.73-3.99-4.73c-2.55,0-4.64,1.88-4.64,5.31c0,3.57,2.24,5.34,5.37,5.34
							c1.63,0,2.94-0.49,4.25-1.28l1.04,1.88c-1.5,0.99-3.43,1.73-5.67,1.73C439.36,482.91,435.87,480.1,435.87,475.25z"/>
						<path class="st19" d="M471.53,472.83c0-6.32,3.77-10.14,8.89-10.14c2.38,0,4.27,1.14,5.47,2.41l-1.69,1.87
							c-0.99-1.02-2.21-1.66-3.79-1.66c-3.47,0-5.8,2.84-5.8,7.44c0,4.68,2.33,7.55,5.85,7.55c1.69,0,3-0.75,4.15-2.03l1.69,1.81
							c-1.54,1.81-3.53,2.83-6.13,2.83C475.35,482.91,471.53,479.25,471.53,472.83z"/>
						<path class="st19" d="M489.23,475.3c0-4.87,3.41-7.66,7.25-7.66s7.25,2.79,7.25,7.66c0,4.82-3.41,7.61-7.25,7.61
							S489.23,480.13,489.23,475.3z M500.69,475.3c0-3.14-1.64-5.22-4.21-5.22s-4.21,2.08-4.21,5.22c0,3.11,1.64,5.17,4.21,5.17
							S500.69,478.41,500.69,475.3z"/>
						<path class="st19" d="M514.51,470.37h-6.51V468h9.47v14.55h-2.97V470.37z M513.55,463.05c0-1.25,0.93-2.12,2.21-2.12
							s2.21,0.86,2.21,2.12c0,1.28-0.93,2.11-2.21,2.11S513.55,464.32,513.55,463.05z"/>
						<path class="st19" d="M525.89,468h2.43l0.24,2.32h0.12c1.46-1.5,3.12-2.68,5.36-2.68c3.4,0,4.95,2.09,4.95,5.88v9.03h-2.97
							v-8.64c0-2.54-0.85-3.72-3.01-3.72c-1.58,0-2.65,0.78-4.15,2.32v10.04h-2.97V468z"/>
						<path class="st19" d="M561.77,463.05h5.8c4,0,6.81,1.28,6.81,4.78c0,1.89-1.09,3.65-3.4,4.24v0.12
							c2.84,0.46,4.45,1.99,4.45,4.65c0,3.87-3.04,5.72-7.38,5.72h-6.27V463.05z M567.21,471.16c3.02,0,4.25-1.03,4.25-3.02
							c0-1.94-1.39-2.66-4.15-2.66h-2.56v5.68H567.21z M567.69,480.13c3.09,0,4.82-1.04,4.82-3.46c0-2.23-1.66-3.14-4.82-3.14h-2.95
							v6.6H567.69z"/>
						<path class="st19" d="M579.13,478.71c0-3.26,2.96-4.87,10.31-5.42c-0.11-1.8-1.07-3.24-3.66-3.24c-1.76,0-3.5,0.8-4.92,1.64
							l-1.13-1.98c1.63-1.01,4.05-2.06,6.58-2.06c4.01,0,6.1,2.3,6.1,6.15v8.76h-2.45l-0.24-1.89h-0.09
							c-1.56,1.22-3.58,2.25-5.57,2.25C581.27,482.91,579.13,481.28,579.13,478.71z M589.43,478.6v-3.41
							c-5.72,0.41-7.41,1.56-7.41,3.3c0,1.46,1.31,2.07,2.87,2.07C586.45,480.56,587.93,479.83,589.43,478.6z"/>
						<path class="st19" d="M601.77,477.46v-13.66h-5v-2.37h7.97v16.2c0,2.02,1.14,2.83,2.74,2.83c0.79,0,1.64-0.19,2.6-0.61
							l0.71,2.2c-1.39,0.55-2.37,0.85-4.01,0.85C603.53,482.91,601.77,480.97,601.77,477.46z"/>
						<path class="st19" d="M614.86,478.71c0-3.26,2.96-4.87,10.31-5.42c-0.11-1.8-1.07-3.24-3.66-3.24c-1.76,0-3.5,0.8-4.92,1.64
							l-1.13-1.98c1.63-1.01,4.05-2.06,6.58-2.06c4.01,0,6.1,2.3,6.1,6.15v8.76h-2.45l-0.24-1.89h-0.09
							c-1.56,1.22-3.58,2.25-5.57,2.25C617,482.91,614.86,481.28,614.86,478.71z M625.17,478.6v-3.41c-5.72,0.41-7.41,1.56-7.41,3.3
							c0,1.46,1.31,2.07,2.87,2.07C622.18,480.56,623.66,479.83,625.17,478.6z"/>
						<path class="st19" d="M633.1,468h2.43l0.24,2.32h0.12c1.46-1.5,3.12-2.68,5.36-2.68c3.4,0,4.95,2.09,4.95,5.88v9.03h-2.97
							v-8.64c0-2.54-0.85-3.72-3.01-3.72c-1.58,0-2.65,0.78-4.15,2.32v10.04h-2.97V468z"/>
						<path class="st19" d="M650.64,475.3c0-4.87,3.77-7.66,8.19-7.66c2.35,0,4.14,0.92,5.34,2.09l-1.43,1.87
							c-1.17-0.96-2.37-1.52-3.78-1.52c-3.13,0-5.29,2.08-5.29,5.22c0,3.11,2.12,5.17,5.2,5.17c1.73,0,3.16-0.77,4.32-1.71
							l1.27,1.91c-1.65,1.45-3.72,2.24-5.83,2.24C654.08,482.91,650.64,480.13,650.64,475.3z"/>
						<path class="st19" d="M668.15,475.25c0-4.74,3.57-7.61,7.46-7.61c4.27,0,6.7,2.8,6.7,6.87c0,0.63-0.08,1.23-0.14,1.61h-11.97
							v-2.17h10.13l-0.64,0.72c0-3.15-1.53-4.73-3.99-4.73c-2.55,0-4.64,1.88-4.64,5.31c0,3.57,2.24,5.34,5.37,5.34
							c1.63,0,2.94-0.49,4.25-1.28l1.04,1.88c-1.5,0.99-3.43,1.73-5.67,1.73C671.64,482.91,668.15,480.1,668.15,475.25z"/>
					</g>
				</g>
			</g>
			<path class="st19" d="M613.73,244.35c-5.43-12.84-13.21-24.38-23.12-34.28c-9.16-9.17-19.73-16.51-31.43-21.86
				c-0.94-0.43-1.89-0.85-2.85-1.26c-6.16-2.61-12.49-4.62-18.97-6.02v94.5h-46.04v-37.26c0-3.36-2.73-6.09-6.09-6.09h-9.64
				c-3.36,0-6.09,2.73-6.09,6.09v132.68c-30.23-16.1-50.85-47.94-50.85-84.51c0-47.66,35.02-87.29,80.68-94.51
				c2.43-0.39,6.17-0.68,9.3-0.88c3.21-0.2,5.71-2.87,5.71-6.09c0-3.51-2.95-6.29-6.45-6.09c-2.95,0.17-6.29,0.41-8.55,0.73
				c-9.27,1.29-18.3,3.78-26.98,7.45c-12.85,5.43-24.38,13.21-34.28,23.12c-9.91,9.9-17.68,21.44-23.11,34.28
				c-5.63,13.3-8.48,27.43-8.48,41.99c0,14.56,2.85,28.68,8.48,41.99c5.43,12.85,13.21,24.38,23.11,34.28
				c9.17,9.17,19.73,16.51,31.44,21.86c0.94,0.43,1.89,0.85,2.85,1.25c6.16,2.61,12.5,4.62,18.97,6.02v-94.5h46.04v37.26
				c0,3.36,2.73,6.09,6.09,6.09h9.64c3.36,0,6.09-2.73,6.09-6.09V201.83c30.23,16.1,50.85,47.94,50.85,84.51
				c0,47.66-35.02,87.29-80.68,94.51c-3.05,0.48-6.14,0.82-9.27,1.01c-3.22,0.19-5.73,2.85-5.73,6.08l0,0
				c0,3.51,2.97,6.29,6.47,6.08c2.86-0.17,5.71-0.45,8.53-0.84c9.27-1.29,18.3-3.78,26.98-7.45c12.85-5.43,24.38-13.21,34.28-23.11
				c9.91-9.9,17.68-21.44,23.12-34.28c5.62-13.3,8.48-27.43,8.48-41.99C622.21,271.78,619.36,257.65,613.73,244.35z"/>
			<text transform="matrix(1 0 0 1 410.2544 551.8486)"><tspan x="0" y="0" class="st19 st20 st21">17.035 </tspan><tspan x="141.4" y="0" class="st19 st20 st22">HSTL</tspan></text>
			<path class="st23" d="M643.79,566.63H384.9c-2.38,0-4.31-1.93-4.31-4.31v-48.77c0-2.38,1.93-4.31,4.31-4.31h258.89
				c2.38,0,4.31,1.93,4.31,4.31v48.77C648.1,564.7,646.17,566.63,643.79,566.63z"/>
			<text transform="matrix(1 0 0 1 443.2388 641.5781)" class="st19 st20 st24">Today</text>
			<g>
				<g>
					<text transform="matrix(1 0 0 1 409.9922 705.7168)"><tspan x="0" y="0" class="st19 st20 st25">0.15 </tspan><tspan x="54.42" y="0" class="st19 st20 st26">HSTL</tspan><tspan x="92.19" y="0" class="st19 st20 st25">  Received</tspan></text>
				</g>
				<g>
					<text transform="matrix(1 0 0 1 452.6006 719.6924)" class="st19 st20 st27">FROM: HSJDnjssjJKSFJSfjksfj.com</text>
				</g>
			</g>
			<g>
				<g>
					<text transform="matrix(1 0 0 1 451.7017 768.6455)" class="st19 st20 st27">FROM: SDADggiJKSFJSdfgsfj.com</text>
				</g>
				<g>
					<text transform="matrix(1 0 0 1 436.231 754.668)"><tspan x="0" y="0" class="st19 st20 st25">0.15 </tspan><tspan x="54.42" y="0" class="st19 st20 st26">HSTL</tspan><tspan x="92.19" y="0" class="st19 st20 st25">  Sent</tspan></text>
				</g>
			</g>
			<rect x="426.93" y="667.68" class="st19" width="174.16" height="1.99"/>
		</g>
	</g>
</g>
</svg>
